<?xml version="1.0" encoding="utf-8"?>
<svg xmlns="http://www.w3.org/2000/svg" xmlns:xlink="http://www.w3.org/1999/xlink" width="800" height="300" viewBox="0 0 3200 1200">
<defs>
  <clipPath id="clip740">
    <rect x="0" y="0" width="3200" height="1200"/>
  </clipPath>
</defs>
<path clip-path="url(#clip740)" d="M0 1200 L3200 1200 L3200 0 L0 0  Z" fill="#ffffff" fill-rule="evenodd" fill-opacity="1"/>
<defs>
  <clipPath id="clip741">
    <rect x="640" y="0" width="2241" height="1200"/>
  </clipPath>
</defs>
<path clip-path="url(#clip740)" d="M253.834 1008.94 L1505.27 1008.94 L1505.27 94.4882 L253.834 94.4882  Z" fill="#ffffff" fill-rule="evenodd" fill-opacity="1"/>
<defs>
  <clipPath id="clip742">
    <rect x="253" y="94" width="1252" height="915"/>
  </clipPath>
</defs>
<polyline clip-path="url(#clip742)" style="stroke:#000000; stroke-linecap:round; stroke-linejoin:round; stroke-width:2; stroke-opacity:0.1; fill:none" points="289.252,1008.94 289.252,94.4882 "/>
<polyline clip-path="url(#clip742)" style="stroke:#000000; stroke-linecap:round; stroke-linejoin:round; stroke-width:2; stroke-opacity:0.1; fill:none" points="1027.13,1008.94 1027.13,94.4882 "/>
<polyline clip-path="url(#clip740)" style="stroke:#000000; stroke-linecap:round; stroke-linejoin:round; stroke-width:4; stroke-opacity:1; fill:none" points="253.834,1008.94 1505.27,1008.94 "/>
<polyline clip-path="url(#clip740)" style="stroke:#000000; stroke-linecap:round; stroke-linejoin:round; stroke-width:4; stroke-opacity:1; fill:none" points="289.252,1008.94 289.252,990.039 "/>
<polyline clip-path="url(#clip740)" style="stroke:#000000; stroke-linecap:round; stroke-linejoin:round; stroke-width:4; stroke-opacity:1; fill:none" points="1027.13,1008.94 1027.13,990.039 "/>
<path clip-path="url(#clip740)" d="M226.616 1089.46 L234.255 1089.46 L234.255 1063.1 L225.945 1064.76 L225.945 1060.5 L234.208 1058.84 L238.884 1058.84 L238.884 1089.46 L246.523 1089.46 L246.523 1093.4 L226.616 1093.4 L226.616 1089.46 Z" fill="#000000" fill-rule="nonzero" fill-opacity="1" /><path clip-path="url(#clip740)" d="M265.967 1061.92 Q262.356 1061.92 260.528 1065.48 Q258.722 1069.02 258.722 1076.15 Q258.722 1083.26 260.528 1086.82 Q262.356 1090.36 265.967 1090.36 Q269.602 1090.36 271.407 1086.82 Q273.236 1083.26 273.236 1076.15 Q273.236 1069.02 271.407 1065.48 Q269.602 1061.92 265.967 1061.92 M265.967 1058.21 Q271.778 1058.21 274.833 1062.82 Q277.912 1067.4 277.912 1076.15 Q277.912 1084.88 274.833 1089.48 Q271.778 1094.07 265.967 1094.07 Q260.157 1094.07 257.079 1089.48 Q254.023 1084.88 254.023 1076.15 Q254.023 1067.4 257.079 1062.82 Q260.157 1058.21 265.967 1058.21 Z" fill="#000000" fill-rule="nonzero" fill-opacity="1" /><path clip-path="url(#clip740)" d="M277.912 1052.31 L302.023 1052.31 L302.023 1055.51 L277.912 1055.51 L277.912 1052.31 Z" fill="#000000" fill-rule="nonzero" fill-opacity="1" /><path clip-path="url(#clip740)" d="M310.882 1062.79 L317.088 1062.79 L317.088 1041.37 L310.336 1042.72 L310.336 1039.26 L317.051 1037.91 L320.85 1037.91 L320.85 1062.79 L327.057 1062.79 L327.057 1065.99 L310.882 1065.99 L310.882 1062.79 Z" fill="#000000" fill-rule="nonzero" fill-opacity="1" /><path clip-path="url(#clip740)" d="M342.855 1040.41 Q339.921 1040.41 338.435 1043.3 Q336.968 1046.18 336.968 1051.97 Q336.968 1057.75 338.435 1060.64 Q339.921 1063.52 342.855 1063.52 Q345.808 1063.52 347.275 1060.64 Q348.761 1057.75 348.761 1051.97 Q348.761 1046.18 347.275 1043.3 Q345.808 1040.41 342.855 1040.41 M342.855 1037.4 Q347.576 1037.4 350.058 1041.14 Q352.56 1044.86 352.56 1051.97 Q352.56 1059.06 350.058 1062.81 Q347.576 1066.53 342.855 1066.53 Q338.134 1066.53 335.633 1062.81 Q333.15 1059.06 333.15 1051.97 Q333.15 1044.86 335.633 1041.14 Q338.134 1037.4 342.855 1037.4 Z" fill="#000000" fill-rule="nonzero" fill-opacity="1" /><path clip-path="url(#clip740)" d="M977.148 1089.46 L984.786 1089.46 L984.786 1063.1 L976.476 1064.76 L976.476 1060.5 L984.74 1058.84 L989.416 1058.84 L989.416 1089.46 L997.055 1089.46 L997.055 1093.4 L977.148 1093.4 L977.148 1089.46 Z" fill="#000000" fill-rule="nonzero" fill-opacity="1" /><path clip-path="url(#clip740)" d="M1016.5 1061.92 Q1012.89 1061.92 1011.06 1065.48 Q1009.25 1069.02 1009.25 1076.15 Q1009.25 1083.26 1011.06 1086.82 Q1012.89 1090.36 1016.5 1090.36 Q1020.13 1090.36 1021.94 1086.82 Q1023.77 1083.26 1023.77 1076.15 Q1023.77 1069.02 1021.94 1065.48 Q1020.13 1061.92 1016.5 1061.92 M1016.5 1058.21 Q1022.31 1058.21 1025.36 1062.82 Q1028.44 1067.4 1028.44 1076.15 Q1028.44 1084.88 1025.36 1089.48 Q1022.31 1094.07 1016.5 1094.07 Q1010.69 1094.07 1007.61 1089.48 Q1004.55 1084.88 1004.55 1076.15 Q1004.55 1067.4 1007.61 1062.82 Q1010.69 1058.21 1016.5 1058.21 Z" fill="#000000" fill-rule="nonzero" fill-opacity="1" /><path clip-path="url(#clip740)" d="M1028.44 1052.31 L1052.56 1052.31 L1052.56 1055.51 L1028.44 1055.51 L1028.44 1052.31 Z" fill="#000000" fill-rule="nonzero" fill-opacity="1" /><path clip-path="url(#clip740)" d="M1060.79 1037.91 L1075.71 1037.91 L1075.71 1041.1 L1064.27 1041.1 L1064.27 1047.99 Q1065.1 1047.7 1065.93 1047.57 Q1066.76 1047.42 1067.58 1047.42 Q1072.28 1047.42 1075.03 1050 Q1077.78 1052.58 1077.78 1056.98 Q1077.78 1061.51 1074.96 1064.03 Q1072.13 1066.53 1067 1066.53 Q1065.23 1066.53 1063.39 1066.23 Q1061.56 1065.93 1059.61 1065.33 L1059.61 1061.51 Q1061.3 1062.43 1063.11 1062.88 Q1064.91 1063.33 1066.92 1063.33 Q1070.18 1063.33 1072.08 1061.62 Q1073.98 1059.91 1073.98 1056.98 Q1073.98 1054.04 1072.08 1052.33 Q1070.18 1050.62 1066.92 1050.62 Q1065.4 1050.62 1063.88 1050.96 Q1062.37 1051.3 1060.79 1052.01 L1060.79 1037.91 Z" fill="#000000" fill-rule="nonzero" fill-opacity="1" /><path clip-path="url(#clip740)" d="M788.235 1153.99 L788.235 1134.7 L794.092 1134.7 L794.092 1184.23 L788.235 1184.23 L788.235 1178.88 Q786.389 1182.06 783.557 1183.62 Q780.756 1185.15 776.809 1185.15 Q770.348 1185.15 766.274 1179.99 Q762.232 1174.84 762.232 1166.43 Q762.232 1158.03 766.274 1152.87 Q770.348 1147.72 776.809 1147.72 Q780.756 1147.72 783.557 1149.28 Q786.389 1150.81 788.235 1153.99 M768.279 1166.43 Q768.279 1172.89 770.921 1176.59 Q773.594 1180.25 778.241 1180.25 Q782.888 1180.25 785.562 1176.59 Q788.235 1172.89 788.235 1166.43 Q788.235 1159.97 785.562 1156.31 Q782.888 1152.62 778.241 1152.62 Q773.594 1152.62 770.921 1156.31 Q768.279 1159.97 768.279 1166.43 Z" fill="#000000" fill-rule="nonzero" fill-opacity="1" /><path clip-path="url(#clip740)" d="M806.155 1148.58 L812.011 1148.58 L812.011 1184.23 L806.155 1184.23 L806.155 1148.58 M806.155 1134.7 L812.011 1134.7 L812.011 1142.12 L806.155 1142.12 L806.155 1134.7 Z" fill="#000000" fill-rule="nonzero" fill-opacity="1" /><path clip-path="url(#clip740)" d="M824.265 1134.7 L830.122 1134.7 L830.122 1184.23 L824.265 1184.23 L824.265 1134.7 Z" fill="#000000" fill-rule="nonzero" fill-opacity="1" /><path clip-path="url(#clip740)" d="M841.771 1170.16 L841.771 1148.58 L847.627 1148.58 L847.627 1169.93 Q847.627 1174.99 849.601 1177.54 Q851.574 1180.06 855.521 1180.06 Q860.263 1180.06 863.001 1177.03 Q865.77 1174.01 865.77 1168.79 L865.77 1148.58 L871.626 1148.58 L871.626 1184.23 L865.77 1184.23 L865.77 1178.75 Q863.637 1182 860.804 1183.59 Q858.004 1185.15 854.28 1185.15 Q848.137 1185.15 844.954 1181.33 Q841.771 1177.51 841.771 1170.16 M856.508 1147.72 L856.508 1147.72 Z" fill="#000000" fill-rule="nonzero" fill-opacity="1" /><path clip-path="url(#clip740)" d="M889.482 1138.46 L889.482 1148.58 L901.545 1148.58 L901.545 1153.13 L889.482 1153.13 L889.482 1172.48 Q889.482 1176.84 890.66 1178.08 Q891.869 1179.32 895.529 1179.32 L901.545 1179.32 L901.545 1184.23 L895.529 1184.23 Q888.75 1184.23 886.172 1181.71 Q883.594 1179.16 883.594 1172.48 L883.594 1153.13 L879.297 1153.13 L879.297 1148.58 L883.594 1148.58 L883.594 1138.46 L889.482 1138.46 Z" fill="#000000" fill-rule="nonzero" fill-opacity="1" /><path clip-path="url(#clip740)" d="M909.248 1148.58 L915.104 1148.58 L915.104 1184.23 L909.248 1184.23 L909.248 1148.58 M909.248 1134.7 L915.104 1134.7 L915.104 1142.12 L909.248 1142.12 L909.248 1134.7 Z" fill="#000000" fill-rule="nonzero" fill-opacity="1" /><path clip-path="url(#clip740)" d="M941.172 1152.68 Q936.461 1152.68 933.724 1156.38 Q930.986 1160.04 930.986 1166.43 Q930.986 1172.83 933.692 1176.52 Q936.429 1180.18 941.172 1180.18 Q945.85 1180.18 948.588 1176.49 Q951.325 1172.8 951.325 1166.43 Q951.325 1160.1 948.588 1156.41 Q945.85 1152.68 941.172 1152.68 M941.172 1147.72 Q948.81 1147.72 953.171 1152.68 Q957.531 1157.65 957.531 1166.43 Q957.531 1175.19 953.171 1180.18 Q948.81 1185.15 941.172 1185.15 Q933.501 1185.15 929.14 1180.18 Q924.812 1175.19 924.812 1166.43 Q924.812 1157.65 929.14 1152.68 Q933.501 1147.72 941.172 1147.72 Z" fill="#000000" fill-rule="nonzero" fill-opacity="1" /><path clip-path="url(#clip740)" d="M996.871 1162.71 L996.871 1184.23 L991.015 1184.23 L991.015 1162.9 Q991.015 1157.84 989.042 1155.32 Q987.068 1152.81 983.122 1152.81 Q978.379 1152.81 975.642 1155.83 Q972.905 1158.86 972.905 1164.08 L972.905 1184.23 L967.016 1184.23 L967.016 1148.58 L972.905 1148.58 L972.905 1154.12 Q975.005 1150.9 977.838 1149.31 Q980.703 1147.72 984.427 1147.72 Q990.569 1147.72 993.72 1151.54 Q996.871 1155.32 996.871 1162.71 Z" fill="#000000" fill-rule="nonzero" fill-opacity="1" /><polyline clip-path="url(#clip742)" style="stroke:#000000; stroke-linecap:round; stroke-linejoin:round; stroke-width:2; stroke-opacity:0.1; fill:none" points="253.834,983.135 1505.27,983.135 "/>
<polyline clip-path="url(#clip742)" style="stroke:#000000; stroke-linecap:round; stroke-linejoin:round; stroke-width:2; stroke-opacity:0.1; fill:none" points="253.834,791.975 1505.27,791.975 "/>
<polyline clip-path="url(#clip742)" style="stroke:#000000; stroke-linecap:round; stroke-linejoin:round; stroke-width:2; stroke-opacity:0.1; fill:none" points="253.834,600.815 1505.27,600.815 "/>
<polyline clip-path="url(#clip742)" style="stroke:#000000; stroke-linecap:round; stroke-linejoin:round; stroke-width:2; stroke-opacity:0.1; fill:none" points="253.834,409.655 1505.27,409.655 "/>
<polyline clip-path="url(#clip742)" style="stroke:#000000; stroke-linecap:round; stroke-linejoin:round; stroke-width:2; stroke-opacity:0.1; fill:none" points="253.834,218.494 1505.27,218.494 "/>
<polyline clip-path="url(#clip740)" style="stroke:#000000; stroke-linecap:round; stroke-linejoin:round; stroke-width:4; stroke-opacity:1; fill:none" points="253.834,1008.94 253.834,94.4882 "/>
<polyline clip-path="url(#clip740)" style="stroke:#000000; stroke-linecap:round; stroke-linejoin:round; stroke-width:4; stroke-opacity:1; fill:none" points="253.834,983.135 272.732,983.135 "/>
<polyline clip-path="url(#clip740)" style="stroke:#000000; stroke-linecap:round; stroke-linejoin:round; stroke-width:4; stroke-opacity:1; fill:none" points="253.834,791.975 272.732,791.975 "/>
<polyline clip-path="url(#clip740)" style="stroke:#000000; stroke-linecap:round; stroke-linejoin:round; stroke-width:4; stroke-opacity:1; fill:none" points="253.834,600.815 272.732,600.815 "/>
<polyline clip-path="url(#clip740)" style="stroke:#000000; stroke-linecap:round; stroke-linejoin:round; stroke-width:4; stroke-opacity:1; fill:none" points="253.834,409.655 272.732,409.655 "/>
<polyline clip-path="url(#clip740)" style="stroke:#000000; stroke-linecap:round; stroke-linejoin:round; stroke-width:4; stroke-opacity:1; fill:none" points="253.834,218.494 272.732,218.494 "/>
<path clip-path="url(#clip740)" d="M148.659 968.934 Q145.048 968.934 143.219 972.499 Q141.413 976.04 141.413 983.17 Q141.413 990.276 143.219 993.841 Q145.048 997.383 148.659 997.383 Q152.293 997.383 154.098 993.841 Q155.927 990.276 155.927 983.17 Q155.927 976.04 154.098 972.499 Q152.293 968.934 148.659 968.934 M148.659 965.23 Q154.469 965.23 157.524 969.837 Q160.603 974.42 160.603 983.17 Q160.603 991.897 157.524 996.503 Q154.469 1001.09 148.659 1001.09 Q142.848 1001.09 139.77 996.503 Q136.714 991.897 136.714 983.17 Q136.714 974.42 139.77 969.837 Q142.848 965.23 148.659 965.23 Z" fill="#000000" fill-rule="nonzero" fill-opacity="1" /><path clip-path="url(#clip740)" d="M168.821 994.536 L173.705 994.536 L173.705 1000.42 L168.821 1000.42 L168.821 994.536 Z" fill="#000000" fill-rule="nonzero" fill-opacity="1" /><path clip-path="url(#clip740)" d="M193.89 968.934 Q190.279 968.934 188.45 972.499 Q186.645 976.04 186.645 983.17 Q186.645 990.276 188.45 993.841 Q190.279 997.383 193.89 997.383 Q197.524 997.383 199.33 993.841 Q201.158 990.276 201.158 983.17 Q201.158 976.04 199.33 972.499 Q197.524 968.934 193.89 968.934 M193.89 965.23 Q199.7 965.23 202.756 969.837 Q205.834 974.42 205.834 983.17 Q205.834 991.897 202.756 996.503 Q199.7 1001.09 193.89 1001.09 Q188.08 1001.09 185.001 996.503 Q181.945 991.897 181.945 983.17 Q181.945 974.42 185.001 969.837 Q188.08 965.23 193.89 965.23 Z" fill="#000000" fill-rule="nonzero" fill-opacity="1" /><path clip-path="url(#clip740)" d="M149.654 777.774 Q146.043 777.774 144.214 781.338 Q142.409 784.88 142.409 792.01 Q142.409 799.116 144.214 802.681 Q146.043 806.223 149.654 806.223 Q153.288 806.223 155.094 802.681 Q156.922 799.116 156.922 792.01 Q156.922 784.88 155.094 781.338 Q153.288 777.774 149.654 777.774 M149.654 774.07 Q155.464 774.07 158.52 778.676 Q161.598 783.26 161.598 792.01 Q161.598 800.737 158.52 805.343 Q155.464 809.926 149.654 809.926 Q143.844 809.926 140.765 805.343 Q137.71 800.737 137.71 792.01 Q137.71 783.26 140.765 778.676 Q143.844 774.07 149.654 774.07 Z" fill="#000000" fill-rule="nonzero" fill-opacity="1" /><path clip-path="url(#clip740)" d="M169.816 803.375 L174.7 803.375 L174.7 809.255 L169.816 809.255 L169.816 803.375 Z" fill="#000000" fill-rule="nonzero" fill-opacity="1" /><path clip-path="url(#clip740)" d="M184.932 774.695 L203.288 774.695 L203.288 778.63 L189.214 778.63 L189.214 787.102 Q190.232 786.755 191.251 786.593 Q192.27 786.408 193.288 786.408 Q199.075 786.408 202.455 789.579 Q205.834 792.75 205.834 798.167 Q205.834 803.746 202.362 806.848 Q198.89 809.926 192.57 809.926 Q190.395 809.926 188.126 809.556 Q185.881 809.186 183.473 808.445 L183.473 803.746 Q185.557 804.88 187.779 805.436 Q190.001 805.991 192.478 805.991 Q196.482 805.991 198.82 803.885 Q201.158 801.778 201.158 798.167 Q201.158 794.556 198.82 792.45 Q196.482 790.343 192.478 790.343 Q190.603 790.343 188.728 790.76 Q186.876 791.176 184.932 792.056 L184.932 774.695 Z" fill="#000000" fill-rule="nonzero" fill-opacity="1" /><path clip-path="url(#clip740)" d="M139.469 614.16 L147.108 614.16 L147.108 587.794 L138.798 589.461 L138.798 585.201 L147.061 583.535 L151.737 583.535 L151.737 614.16 L159.376 614.16 L159.376 618.095 L139.469 618.095 L139.469 614.16 Z" fill="#000000" fill-rule="nonzero" fill-opacity="1" /><path clip-path="url(#clip740)" d="M168.821 612.215 L173.705 612.215 L173.705 618.095 L168.821 618.095 L168.821 612.215 Z" fill="#000000" fill-rule="nonzero" fill-opacity="1" /><path clip-path="url(#clip740)" d="M193.89 586.613 Q190.279 586.613 188.45 590.178 Q186.645 593.72 186.645 600.849 Q186.645 607.956 188.45 611.521 Q190.279 615.062 193.89 615.062 Q197.524 615.062 199.33 611.521 Q201.158 607.956 201.158 600.849 Q201.158 593.72 199.33 590.178 Q197.524 586.613 193.89 586.613 M193.89 582.91 Q199.7 582.91 202.756 587.516 Q205.834 592.1 205.834 600.849 Q205.834 609.576 202.756 614.183 Q199.7 618.766 193.89 618.766 Q188.08 618.766 185.001 614.183 Q181.945 609.576 181.945 600.849 Q181.945 592.1 185.001 587.516 Q188.08 582.91 193.89 582.91 Z" fill="#000000" fill-rule="nonzero" fill-opacity="1" /><path clip-path="url(#clip740)" d="M140.464 422.999 L148.103 422.999 L148.103 396.634 L139.793 398.3 L139.793 394.041 L148.057 392.375 L152.733 392.375 L152.733 422.999 L160.372 422.999 L160.372 426.935 L140.464 426.935 L140.464 422.999 Z" fill="#000000" fill-rule="nonzero" fill-opacity="1" /><path clip-path="url(#clip740)" d="M169.816 421.055 L174.7 421.055 L174.7 426.935 L169.816 426.935 L169.816 421.055 Z" fill="#000000" fill-rule="nonzero" fill-opacity="1" /><path clip-path="url(#clip740)" d="M184.932 392.375 L203.288 392.375 L203.288 396.31 L189.214 396.31 L189.214 404.782 Q190.232 404.435 191.251 404.273 Q192.27 404.087 193.288 404.087 Q199.075 404.087 202.455 407.259 Q205.834 410.43 205.834 415.847 Q205.834 421.425 202.362 424.527 Q198.89 427.606 192.57 427.606 Q190.395 427.606 188.126 427.235 Q185.881 426.865 183.473 426.124 L183.473 421.425 Q185.557 422.56 187.779 423.115 Q190.001 423.671 192.478 423.671 Q196.482 423.671 198.82 421.564 Q201.158 419.458 201.158 415.847 Q201.158 412.236 198.82 410.129 Q196.482 408.023 192.478 408.023 Q190.603 408.023 188.728 408.439 Q186.876 408.856 184.932 409.736 L184.932 392.375 Z" fill="#000000" fill-rule="nonzero" fill-opacity="1" /><path clip-path="url(#clip740)" d="M142.686 231.839 L159.006 231.839 L159.006 235.774 L137.061 235.774 L137.061 231.839 Q139.723 229.084 144.307 224.455 Q148.913 219.802 150.094 218.46 Q152.339 215.936 153.219 214.2 Q154.122 212.441 154.122 210.751 Q154.122 207.997 152.177 206.261 Q150.256 204.524 147.154 204.524 Q144.955 204.524 142.501 205.288 Q140.071 206.052 137.293 207.603 L137.293 202.881 Q140.117 201.747 142.571 201.168 Q145.024 200.589 147.061 200.589 Q152.432 200.589 155.626 203.274 Q158.821 205.96 158.821 210.45 Q158.821 212.58 158.01 214.501 Q157.223 216.399 155.117 218.992 Q154.538 219.663 151.436 222.881 Q148.335 226.075 142.686 231.839 Z" fill="#000000" fill-rule="nonzero" fill-opacity="1" /><path clip-path="url(#clip740)" d="M168.821 229.895 L173.705 229.895 L173.705 235.774 L168.821 235.774 L168.821 229.895 Z" fill="#000000" fill-rule="nonzero" fill-opacity="1" /><path clip-path="url(#clip740)" d="M193.89 204.293 Q190.279 204.293 188.45 207.858 Q186.645 211.399 186.645 218.529 Q186.645 225.635 188.45 229.2 Q190.279 232.742 193.89 232.742 Q197.524 232.742 199.33 229.2 Q201.158 225.635 201.158 218.529 Q201.158 211.399 199.33 207.858 Q197.524 204.293 193.89 204.293 M193.89 200.589 Q199.7 200.589 202.756 205.196 Q205.834 209.779 205.834 218.529 Q205.834 227.256 202.756 231.862 Q199.7 236.446 193.89 236.446 Q188.08 236.446 185.001 231.862 Q181.945 227.256 181.945 218.529 Q181.945 209.779 185.001 205.196 Q188.08 200.589 193.89 200.589 Z" fill="#000000" fill-rule="nonzero" fill-opacity="1" /><path clip-path="url(#clip740)" d="M44.2848 674.173 Q43.7119 675.159 43.4573 676.337 Q43.1708 677.483 43.1708 678.883 Q43.1708 683.848 46.4173 686.522 Q49.632 689.164 55.6794 689.164 L74.4583 689.164 L74.4583 695.052 L38.8103 695.052 L38.8103 689.164 L44.3485 689.164 Q41.1019 687.318 39.5424 684.358 Q37.9509 681.398 37.9509 677.164 Q37.9509 676.56 38.0464 675.828 Q38.1101 675.096 38.2692 674.204 L44.2848 674.173 Z" fill="#000000" fill-rule="nonzero" fill-opacity="1" /><path clip-path="url(#clip740)" d="M55.1702 638.97 L58.0347 638.97 L58.0347 665.897 Q64.0822 665.515 67.265 662.269 Q70.416 658.99 70.416 653.166 Q70.416 649.792 69.5885 646.641 Q68.7609 643.458 67.1059 640.339 L72.644 640.339 Q73.9808 643.49 74.6811 646.8 Q75.3813 650.11 75.3813 653.516 Q75.3813 662.046 70.416 667.043 Q65.4508 672.008 56.9844 672.008 Q48.2315 672.008 43.1071 667.298 Q37.9509 662.555 37.9509 654.534 Q37.9509 647.341 42.5979 643.172 Q47.213 638.97 55.1702 638.97 M53.4514 644.827 Q48.6453 644.89 45.7807 647.532 Q42.9162 650.142 42.9162 654.471 Q42.9162 659.372 45.6853 662.332 Q48.4543 665.261 53.4832 665.706 L53.4514 644.827 Z" fill="#000000" fill-rule="nonzero" fill-opacity="1" /><path clip-path="url(#clip740)" d="M39.8606 606.632 L45.3988 606.632 Q44.1257 609.115 43.4891 611.789 Q42.8525 614.462 42.8525 617.327 Q42.8525 621.687 44.1893 623.884 Q45.5261 626.048 48.1997 626.048 Q50.2367 626.048 51.4144 624.488 Q52.5602 622.929 53.6106 618.218 L54.0562 616.213 Q55.393 609.974 57.8438 607.365 Q60.2627 604.723 64.6232 604.723 Q69.5885 604.723 72.4849 608.669 Q75.3813 612.584 75.3813 619.459 Q75.3813 622.324 74.8084 625.443 Q74.2673 628.53 73.1533 631.968 L67.1059 631.968 Q68.7928 628.721 69.6521 625.57 Q70.4797 622.419 70.4797 619.332 Q70.4797 615.194 69.0792 612.966 Q67.6469 610.738 65.0688 610.738 Q62.6817 610.738 61.4086 612.362 Q60.1354 613.953 58.9578 619.396 L58.4803 621.433 Q57.3345 626.875 54.9792 629.294 Q52.592 631.713 48.4543 631.713 Q43.4254 631.713 40.6882 628.149 Q37.9509 624.584 37.9509 618.027 Q37.9509 614.781 38.4284 611.916 Q38.9058 609.051 39.8606 606.632 Z" fill="#000000" fill-rule="nonzero" fill-opacity="1" /><path clip-path="url(#clip740)" d="M69.1111 589.732 L88.0172 589.732 L88.0172 595.62 L38.8103 595.62 L38.8103 589.732 L44.2211 589.732 Q41.0383 587.885 39.5105 585.085 Q37.9509 582.252 37.9509 578.337 Q37.9509 571.844 43.1071 567.802 Q48.2634 563.728 56.6661 563.728 Q65.0688 563.728 70.2251 567.802 Q75.3813 571.844 75.3813 578.337 Q75.3813 582.252 73.8535 585.085 Q72.2939 587.885 69.1111 589.732 M56.6661 569.807 Q50.2049 569.807 46.5446 572.48 Q42.8525 575.122 42.8525 579.769 Q42.8525 584.416 46.5446 587.09 Q50.2049 589.732 56.6661 589.732 Q63.1273 589.732 66.8194 587.09 Q70.4797 584.416 70.4797 579.769 Q70.4797 575.122 66.8194 572.48 Q63.1273 569.807 56.6661 569.807 Z" fill="#000000" fill-rule="nonzero" fill-opacity="1" /><path clip-path="url(#clip740)" d="M42.9162 540.206 Q42.9162 544.917 46.6083 547.654 Q50.2686 550.391 56.6661 550.391 Q63.0636 550.391 66.7557 547.686 Q70.416 544.949 70.416 540.206 Q70.416 535.528 66.7239 532.79 Q63.0318 530.053 56.6661 530.053 Q50.3322 530.053 46.6401 532.79 Q42.9162 535.528 42.9162 540.206 M37.9509 540.206 Q37.9509 532.567 42.9162 528.207 Q47.8814 523.846 56.6661 523.846 Q65.4189 523.846 70.416 528.207 Q75.3813 532.567 75.3813 540.206 Q75.3813 547.877 70.416 552.237 Q65.4189 556.566 56.6661 556.566 Q47.8814 556.566 42.9162 552.237 Q37.9509 547.877 37.9509 540.206 Z" fill="#000000" fill-rule="nonzero" fill-opacity="1" /><path clip-path="url(#clip740)" d="M52.9422 484.506 L74.4583 484.506 L74.4583 490.363 L53.1331 490.363 Q48.0724 490.363 45.5579 492.336 Q43.0435 494.31 43.0435 498.256 Q43.0435 502.999 46.0672 505.736 Q49.0909 508.473 54.3108 508.473 L74.4583 508.473 L74.4583 514.362 L38.8103 514.362 L38.8103 508.473 L44.3485 508.473 Q41.1338 506.373 39.5424 503.54 Q37.9509 500.675 37.9509 496.951 Q37.9509 490.808 41.7703 487.657 Q45.5579 484.506 52.9422 484.506 Z" fill="#000000" fill-rule="nonzero" fill-opacity="1" /><path clip-path="url(#clip740)" d="M39.8606 450.1 L45.3988 450.1 Q44.1257 452.582 43.4891 455.256 Q42.8525 457.93 42.8525 460.794 Q42.8525 465.155 44.1893 467.351 Q45.5261 469.515 48.1997 469.515 Q50.2367 469.515 51.4144 467.956 Q52.5602 466.396 53.6106 461.685 L54.0562 459.68 Q55.393 453.442 57.8438 450.832 Q60.2627 448.19 64.6232 448.19 Q69.5885 448.19 72.4849 452.137 Q75.3813 456.052 75.3813 462.927 Q75.3813 465.791 74.8084 468.91 Q74.2673 471.998 73.1533 475.435 L67.1059 475.435 Q68.7928 472.189 69.6521 469.038 Q70.4797 465.887 70.4797 462.799 Q70.4797 458.662 69.0792 456.434 Q67.6469 454.206 65.0688 454.206 Q62.6817 454.206 61.4086 455.829 Q60.1354 457.42 58.9578 462.863 L58.4803 464.9 Q57.3345 470.343 54.9792 472.762 Q52.592 475.181 48.4543 475.181 Q43.4254 475.181 40.6882 471.616 Q37.9509 468.051 37.9509 461.494 Q37.9509 458.248 38.4284 455.383 Q38.9058 452.519 39.8606 450.1 Z" fill="#000000" fill-rule="nonzero" fill-opacity="1" /><path clip-path="url(#clip740)" d="M55.1702 408.373 L58.0347 408.373 L58.0347 435.299 Q64.0822 434.918 67.265 431.671 Q70.416 428.393 70.416 422.568 Q70.416 419.194 69.5885 416.043 Q68.7609 412.86 67.1059 409.741 L72.644 409.741 Q73.9808 412.892 74.6811 416.202 Q75.3813 419.513 75.3813 422.918 Q75.3813 431.448 70.416 436.445 Q65.4508 441.411 56.9844 441.411 Q48.2315 441.411 43.1071 436.7 Q37.9509 431.957 37.9509 423.937 Q37.9509 416.743 42.5979 412.574 Q47.213 408.373 55.1702 408.373 M53.4514 414.229 Q48.6453 414.293 45.7807 416.934 Q42.9162 419.544 42.9162 423.873 Q42.9162 428.775 45.6853 431.735 Q48.4543 434.663 53.4832 435.108 L53.4514 414.229 Z" fill="#000000" fill-rule="nonzero" fill-opacity="1" /><circle clip-path="url(#clip742)" cx="289.252" cy="983.049" r="14.4" fill="#000000" fill-rule="evenodd" fill-opacity="0.2" stroke="none"/>
<circle clip-path="url(#clip742)" cx="367.959" cy="982.862" r="14.4" fill="#000000" fill-rule="evenodd" fill-opacity="0.2" stroke="none"/>
<circle clip-path="url(#clip742)" cx="446.665" cy="982.281" r="14.4" fill="#000000" fill-rule="evenodd" fill-opacity="0.2" stroke="none"/>
<circle clip-path="url(#clip742)" cx="525.372" cy="980.003" r="14.4" fill="#000000" fill-rule="evenodd" fill-opacity="0.2" stroke="none"/>
<circle clip-path="url(#clip742)" cx="604.079" cy="974.752" r="14.4" fill="#000000" fill-rule="evenodd" fill-opacity="0.2" stroke="none"/>
<circle clip-path="url(#clip742)" cx="682.785" cy="957.272" r="14.4" fill="#000000" fill-rule="evenodd" fill-opacity="0.2" stroke="none"/>
<circle clip-path="url(#clip742)" cx="761.492" cy="905.985" r="14.4" fill="#000000" fill-rule="evenodd" fill-opacity="0.2" stroke="none"/>
<circle clip-path="url(#clip742)" cx="840.198" cy="807.317" r="14.4" fill="#000000" fill-rule="evenodd" fill-opacity="0.2" stroke="none"/>
<circle clip-path="url(#clip742)" cx="918.905" cy="658.838" r="14.4" fill="#000000" fill-rule="evenodd" fill-opacity="0.2" stroke="none"/>
<circle clip-path="url(#clip742)" cx="997.611" cy="575.185" r="14.4" fill="#000000" fill-rule="evenodd" fill-opacity="0.2" stroke="none"/>
<circle clip-path="url(#clip742)" cx="1076.32" cy="483.846" r="14.4" fill="#000000" fill-rule="evenodd" fill-opacity="0.2" stroke="none"/>
<circle clip-path="url(#clip742)" cx="1155.02" cy="386.267" r="14.4" fill="#000000" fill-rule="evenodd" fill-opacity="0.2" stroke="none"/>
<circle clip-path="url(#clip742)" cx="1233.73" cy="252.01" r="14.4" fill="#000000" fill-rule="evenodd" fill-opacity="0.2" stroke="none"/>
<circle clip-path="url(#clip742)" cx="1312.44" cy="218.586" r="14.4" fill="#000000" fill-rule="evenodd" fill-opacity="0.2" stroke="none"/>
<circle clip-path="url(#clip742)" cx="1391.14" cy="120.369" r="14.4" fill="#000000" fill-rule="evenodd" fill-opacity="0.2" stroke="none"/>
<circle clip-path="url(#clip742)" cx="1469.85" cy="180.618" r="14.4" fill="#000000" fill-rule="evenodd" fill-opacity="0.2" stroke="none"/>
<circle clip-path="url(#clip742)" cx="289.252" cy="983.055" r="14.4" fill="#000000" fill-rule="evenodd" fill-opacity="0.2" stroke="none"/>
<circle clip-path="url(#clip742)" cx="367.959" cy="982.809" r="14.4" fill="#000000" fill-rule="evenodd" fill-opacity="0.2" stroke="none"/>
<circle clip-path="url(#clip742)" cx="446.665" cy="982.312" r="14.4" fill="#000000" fill-rule="evenodd" fill-opacity="0.2" stroke="none"/>
<circle clip-path="url(#clip742)" cx="525.372" cy="980.354" r="14.4" fill="#000000" fill-rule="evenodd" fill-opacity="0.2" stroke="none"/>
<circle clip-path="url(#clip742)" cx="604.079" cy="974.837" r="14.4" fill="#000000" fill-rule="evenodd" fill-opacity="0.2" stroke="none"/>
<circle clip-path="url(#clip742)" cx="682.785" cy="958.396" r="14.4" fill="#000000" fill-rule="evenodd" fill-opacity="0.2" stroke="none"/>
<circle clip-path="url(#clip742)" cx="761.492" cy="906.235" r="14.4" fill="#000000" fill-rule="evenodd" fill-opacity="0.2" stroke="none"/>
<circle clip-path="url(#clip742)" cx="840.198" cy="807.483" r="14.4" fill="#000000" fill-rule="evenodd" fill-opacity="0.2" stroke="none"/>
<circle clip-path="url(#clip742)" cx="918.905" cy="647.63" r="14.4" fill="#000000" fill-rule="evenodd" fill-opacity="0.2" stroke="none"/>
<circle clip-path="url(#clip742)" cx="997.611" cy="529.731" r="14.4" fill="#000000" fill-rule="evenodd" fill-opacity="0.2" stroke="none"/>
<circle clip-path="url(#clip742)" cx="1076.32" cy="511.818" r="14.4" fill="#000000" fill-rule="evenodd" fill-opacity="0.2" stroke="none"/>
<circle clip-path="url(#clip742)" cx="1155.02" cy="331.956" r="14.4" fill="#000000" fill-rule="evenodd" fill-opacity="0.2" stroke="none"/>
<circle clip-path="url(#clip742)" cx="1233.73" cy="173.717" r="14.4" fill="#000000" fill-rule="evenodd" fill-opacity="0.2" stroke="none"/>
<circle clip-path="url(#clip742)" cx="1312.44" cy="203.95" r="14.4" fill="#000000" fill-rule="evenodd" fill-opacity="0.2" stroke="none"/>
<circle clip-path="url(#clip742)" cx="1391.14" cy="230.06" r="14.4" fill="#000000" fill-rule="evenodd" fill-opacity="0.2" stroke="none"/>
<circle clip-path="url(#clip742)" cx="1469.85" cy="180.481" r="14.4" fill="#000000" fill-rule="evenodd" fill-opacity="0.2" stroke="none"/>
<circle clip-path="url(#clip742)" cx="289.252" cy="983.056" r="14.4" fill="#000000" fill-rule="evenodd" fill-opacity="0.2" stroke="none"/>
<circle clip-path="url(#clip742)" cx="367.959" cy="982.855" r="14.4" fill="#000000" fill-rule="evenodd" fill-opacity="0.2" stroke="none"/>
<circle clip-path="url(#clip742)" cx="446.665" cy="982.186" r="14.4" fill="#000000" fill-rule="evenodd" fill-opacity="0.2" stroke="none"/>
<circle clip-path="url(#clip742)" cx="525.372" cy="980.469" r="14.4" fill="#000000" fill-rule="evenodd" fill-opacity="0.2" stroke="none"/>
<circle clip-path="url(#clip742)" cx="604.079" cy="974.183" r="14.4" fill="#000000" fill-rule="evenodd" fill-opacity="0.2" stroke="none"/>
<circle clip-path="url(#clip742)" cx="682.785" cy="955.737" r="14.4" fill="#000000" fill-rule="evenodd" fill-opacity="0.2" stroke="none"/>
<circle clip-path="url(#clip742)" cx="761.492" cy="907.838" r="14.4" fill="#000000" fill-rule="evenodd" fill-opacity="0.2" stroke="none"/>
<circle clip-path="url(#clip742)" cx="840.198" cy="776.865" r="14.4" fill="#000000" fill-rule="evenodd" fill-opacity="0.2" stroke="none"/>
<circle clip-path="url(#clip742)" cx="918.905" cy="651.92" r="14.4" fill="#000000" fill-rule="evenodd" fill-opacity="0.2" stroke="none"/>
<circle clip-path="url(#clip742)" cx="997.611" cy="575.169" r="14.4" fill="#000000" fill-rule="evenodd" fill-opacity="0.2" stroke="none"/>
<circle clip-path="url(#clip742)" cx="1076.32" cy="494.958" r="14.4" fill="#000000" fill-rule="evenodd" fill-opacity="0.2" stroke="none"/>
<circle clip-path="url(#clip742)" cx="1155.02" cy="401.268" r="14.4" fill="#000000" fill-rule="evenodd" fill-opacity="0.2" stroke="none"/>
<circle clip-path="url(#clip742)" cx="1233.73" cy="134.826" r="14.4" fill="#000000" fill-rule="evenodd" fill-opacity="0.2" stroke="none"/>
<circle clip-path="url(#clip742)" cx="1312.44" cy="188.88" r="14.4" fill="#000000" fill-rule="evenodd" fill-opacity="0.2" stroke="none"/>
<circle clip-path="url(#clip742)" cx="1391.14" cy="157.008" r="14.4" fill="#000000" fill-rule="evenodd" fill-opacity="0.2" stroke="none"/>
<circle clip-path="url(#clip742)" cx="1469.85" cy="148.568" r="14.4" fill="#000000" fill-rule="evenodd" fill-opacity="0.2" stroke="none"/>
<polyline clip-path="url(#clip742)" style="stroke:#e26f46; stroke-linecap:round; stroke-linejoin:round; stroke-width:4; stroke-opacity:1; fill:none" points="289.252,983.053 367.959,982.871 446.665,982.26 525.372,980.289 604.079,974.398 682.785,957.148 761.492,906.8 840.198,793.613 918.905,652.719 997.611,566.663 1076.32,494.78 1155.02,368.161 1233.73,244.546 1312.44,200.73 1391.14,186.449 1469.85,169.563 "/>
<circle clip-path="url(#clip742)" cx="289.252" cy="983.053" r="14.4" fill="#009af9" fill-rule="evenodd" fill-opacity="1" stroke="#000000" stroke-opacity="1" stroke-width="2.4"/>
<circle clip-path="url(#clip742)" cx="367.959" cy="982.842" r="14.4" fill="#009af9" fill-rule="evenodd" fill-opacity="1" stroke="#000000" stroke-opacity="1" stroke-width="2.4"/>
<circle clip-path="url(#clip742)" cx="446.665" cy="982.26" r="14.4" fill="#009af9" fill-rule="evenodd" fill-opacity="1" stroke="#000000" stroke-opacity="1" stroke-width="2.4"/>
<circle clip-path="url(#clip742)" cx="525.372" cy="980.275" r="14.4" fill="#009af9" fill-rule="evenodd" fill-opacity="1" stroke="#000000" stroke-opacity="1" stroke-width="2.4"/>
<circle clip-path="url(#clip742)" cx="604.079" cy="974.591" r="14.4" fill="#009af9" fill-rule="evenodd" fill-opacity="1" stroke="#000000" stroke-opacity="1" stroke-width="2.4"/>
<circle clip-path="url(#clip742)" cx="682.785" cy="957.135" r="14.4" fill="#009af9" fill-rule="evenodd" fill-opacity="1" stroke="#000000" stroke-opacity="1" stroke-width="2.4"/>
<circle clip-path="url(#clip742)" cx="761.492" cy="906.686" r="14.4" fill="#009af9" fill-rule="evenodd" fill-opacity="1" stroke="#000000" stroke-opacity="1" stroke-width="2.4"/>
<circle clip-path="url(#clip742)" cx="840.198" cy="797.222" r="14.4" fill="#009af9" fill-rule="evenodd" fill-opacity="1" stroke="#000000" stroke-opacity="1" stroke-width="2.4"/>
<circle clip-path="url(#clip742)" cx="918.905" cy="652.796" r="14.4" fill="#009af9" fill-rule="evenodd" fill-opacity="1" stroke="#000000" stroke-opacity="1" stroke-width="2.4"/>
<circle clip-path="url(#clip742)" cx="997.611" cy="560.028" r="14.4" fill="#009af9" fill-rule="evenodd" fill-opacity="1" stroke="#000000" stroke-opacity="1" stroke-width="2.4"/>
<circle clip-path="url(#clip742)" cx="1076.32" cy="496.874" r="14.4" fill="#009af9" fill-rule="evenodd" fill-opacity="1" stroke="#000000" stroke-opacity="1" stroke-width="2.4"/>
<circle clip-path="url(#clip742)" cx="1155.02" cy="373.163" r="14.4" fill="#009af9" fill-rule="evenodd" fill-opacity="1" stroke="#000000" stroke-opacity="1" stroke-width="2.4"/>
<circle clip-path="url(#clip742)" cx="1233.73" cy="186.851" r="14.4" fill="#009af9" fill-rule="evenodd" fill-opacity="1" stroke="#000000" stroke-opacity="1" stroke-width="2.4"/>
<circle clip-path="url(#clip742)" cx="1312.44" cy="203.805" r="14.4" fill="#009af9" fill-rule="evenodd" fill-opacity="1" stroke="#000000" stroke-opacity="1" stroke-width="2.4"/>
<circle clip-path="url(#clip742)" cx="1391.14" cy="169.145" r="14.4" fill="#009af9" fill-rule="evenodd" fill-opacity="1" stroke="#000000" stroke-opacity="1" stroke-width="2.4"/>
<circle clip-path="url(#clip742)" cx="1469.85" cy="169.889" r="14.4" fill="#009af9" fill-rule="evenodd" fill-opacity="1" stroke="#000000" stroke-opacity="1" stroke-width="2.4"/>
<path clip-path="url(#clip740)" d="M295.549 332.33 L717.774 332.33 L717.774 124.97 L295.549 124.97  Z" fill="#ffffff" fill-rule="evenodd" fill-opacity="1"/>
<polyline clip-path="url(#clip740)" style="stroke:#000000; stroke-linecap:round; stroke-linejoin:round; stroke-width:4; stroke-opacity:1; fill:none" points="295.549,332.33 717.774,332.33 717.774,124.97 295.549,124.97 295.549,332.33 "/>
<circle clip-path="url(#clip740)" cx="351.168" cy="176.81" r="20.48" fill="#000000" fill-rule="evenodd" fill-opacity="0.2" stroke="none"/>
<path clip-path="url(#clip740)" d="M421.972 172.145 Q421.255 171.729 420.398 171.544 Q419.565 171.335 418.547 171.335 Q414.935 171.335 412.991 173.696 Q411.07 176.034 411.07 180.432 L411.07 194.09 L406.787 194.09 L406.787 168.164 L411.07 168.164 L411.07 172.192 Q412.412 169.831 414.565 168.696 Q416.718 167.539 419.797 167.539 Q420.236 167.539 420.769 167.608 Q421.301 167.655 421.949 167.77 L421.972 172.145 Z" fill="#000000" fill-rule="nonzero" fill-opacity="1" /><path clip-path="url(#clip740)" d="M447.574 180.062 L447.574 182.145 L427.991 182.145 Q428.269 186.544 430.63 188.858 Q433.014 191.15 437.25 191.15 Q439.704 191.15 441.996 190.548 Q444.31 189.946 446.579 188.743 L446.579 192.77 Q444.287 193.743 441.88 194.252 Q439.472 194.761 436.996 194.761 Q430.792 194.761 427.158 191.15 Q423.547 187.539 423.547 181.382 Q423.547 175.016 426.972 171.289 Q430.421 167.539 436.255 167.539 Q441.486 167.539 444.519 170.919 Q447.574 174.275 447.574 180.062 M443.315 178.812 Q443.269 175.317 441.347 173.233 Q439.449 171.15 436.301 171.15 Q432.736 171.15 430.584 173.164 Q428.454 175.178 428.13 178.835 L443.315 178.812 Z" fill="#000000" fill-rule="nonzero" fill-opacity="1" /><path clip-path="url(#clip740)" d="M458.685 190.201 L458.685 203.951 L454.403 203.951 L454.403 168.164 L458.685 168.164 L458.685 172.099 Q460.028 169.784 462.065 168.673 Q464.125 167.539 466.972 167.539 Q471.694 167.539 474.634 171.289 Q477.597 175.039 477.597 181.15 Q477.597 187.261 474.634 191.011 Q471.694 194.761 466.972 194.761 Q464.125 194.761 462.065 193.65 Q460.028 192.516 458.685 190.201 M473.176 181.15 Q473.176 176.451 471.231 173.789 Q469.31 171.104 465.931 171.104 Q462.551 171.104 460.607 173.789 Q458.685 176.451 458.685 181.15 Q458.685 185.849 460.607 188.534 Q462.551 191.196 465.931 191.196 Q469.31 191.196 471.231 188.534 Q473.176 185.849 473.176 181.15 Z" fill="#000000" fill-rule="nonzero" fill-opacity="1" /><path clip-path="url(#clip740)" d="M484.657 158.071 L488.917 158.071 L488.917 194.09 L484.657 194.09 L484.657 158.071 Z" fill="#000000" fill-rule="nonzero" fill-opacity="1" /><path clip-path="url(#clip740)" d="M497.829 168.164 L502.088 168.164 L502.088 194.09 L497.829 194.09 L497.829 168.164 M497.829 158.071 L502.088 158.071 L502.088 163.465 L497.829 163.465 L497.829 158.071 Z" fill="#000000" fill-rule="nonzero" fill-opacity="1" /><path clip-path="url(#clip740)" d="M529.657 169.159 L529.657 173.141 Q527.852 172.145 526.023 171.659 Q524.217 171.15 522.365 171.15 Q518.222 171.15 515.93 173.789 Q513.639 176.405 513.639 181.15 Q513.639 185.895 515.93 188.534 Q518.222 191.15 522.365 191.15 Q524.217 191.15 526.023 190.664 Q527.852 190.155 529.657 189.159 L529.657 193.094 Q527.875 193.928 525.953 194.344 Q524.055 194.761 521.902 194.761 Q516.046 194.761 512.597 191.081 Q509.148 187.4 509.148 181.15 Q509.148 174.807 512.62 171.173 Q516.115 167.539 522.18 167.539 Q524.148 167.539 526.023 167.956 Q527.898 168.349 529.657 169.159 Z" fill="#000000" fill-rule="nonzero" fill-opacity="1" /><path clip-path="url(#clip740)" d="M548.847 181.057 Q543.685 181.057 541.694 182.238 Q539.703 183.419 539.703 186.266 Q539.703 188.534 541.185 189.877 Q542.689 191.196 545.259 191.196 Q548.8 191.196 550.93 188.696 Q553.083 186.173 553.083 182.007 L553.083 181.057 L548.847 181.057 M557.342 179.298 L557.342 194.09 L553.083 194.09 L553.083 190.155 Q551.625 192.516 549.449 193.65 Q547.273 194.761 544.125 194.761 Q540.143 194.761 537.782 192.539 Q535.444 190.294 535.444 186.544 Q535.444 182.169 538.361 179.946 Q541.301 177.724 547.111 177.724 L553.083 177.724 L553.083 177.307 Q553.083 174.368 551.138 172.77 Q549.217 171.15 545.722 171.15 Q543.5 171.15 541.393 171.683 Q539.287 172.215 537.342 173.28 L537.342 169.345 Q539.68 168.442 541.879 168.002 Q544.078 167.539 546.162 167.539 Q551.787 167.539 554.564 170.456 Q557.342 173.372 557.342 179.298 Z" fill="#000000" fill-rule="nonzero" fill-opacity="1" /><path clip-path="url(#clip740)" d="M570.328 160.803 L570.328 168.164 L579.101 168.164 L579.101 171.474 L570.328 171.474 L570.328 185.548 Q570.328 188.719 571.185 189.622 Q572.064 190.525 574.726 190.525 L579.101 190.525 L579.101 194.09 L574.726 194.09 Q569.796 194.09 567.921 192.261 Q566.046 190.409 566.046 185.548 L566.046 171.474 L562.921 171.474 L562.921 168.164 L566.046 168.164 L566.046 160.803 L570.328 160.803 Z" fill="#000000" fill-rule="nonzero" fill-opacity="1" /><path clip-path="url(#clip740)" d="M606.879 180.062 L606.879 182.145 L587.296 182.145 Q587.573 186.544 589.935 188.858 Q592.319 191.15 596.555 191.15 Q599.009 191.15 601.3 190.548 Q603.615 189.946 605.884 188.743 L605.884 192.77 Q603.592 193.743 601.184 194.252 Q598.777 194.761 596.3 194.761 Q590.097 194.761 586.462 191.15 Q582.851 187.539 582.851 181.382 Q582.851 175.016 586.277 171.289 Q589.726 167.539 595.559 167.539 Q600.791 167.539 603.823 170.919 Q606.879 174.275 606.879 180.062 M602.62 178.812 Q602.573 175.317 600.652 173.233 Q598.754 171.15 595.606 171.15 Q592.041 171.15 589.888 173.164 Q587.759 175.178 587.435 178.835 L602.62 178.812 Z" fill="#000000" fill-rule="nonzero" fill-opacity="1" /><path clip-path="url(#clip740)" d="M630.397 168.928 L630.397 172.956 Q628.592 172.03 626.647 171.567 Q624.703 171.104 622.62 171.104 Q619.448 171.104 617.851 172.076 Q616.277 173.048 616.277 174.993 Q616.277 176.474 617.411 177.331 Q618.545 178.164 621.971 178.928 L623.43 179.252 Q627.967 180.224 629.865 182.007 Q631.786 183.766 631.786 186.937 Q631.786 190.548 628.916 192.655 Q626.069 194.761 621.069 194.761 Q618.985 194.761 616.717 194.344 Q614.471 193.951 611.971 193.141 L611.971 188.743 Q614.333 189.969 616.624 190.594 Q618.916 191.196 621.161 191.196 Q624.17 191.196 625.791 190.178 Q627.411 189.136 627.411 187.261 Q627.411 185.525 626.231 184.599 Q625.073 183.673 621.115 182.817 L619.633 182.469 Q615.675 181.636 613.916 179.923 Q612.157 178.187 612.157 175.178 Q612.157 171.52 614.749 169.53 Q617.342 167.539 622.11 167.539 Q624.471 167.539 626.555 167.886 Q628.638 168.233 630.397 168.928 Z" fill="#000000" fill-rule="nonzero" fill-opacity="1" /><polyline clip-path="url(#clip740)" style="stroke:#e26f46; stroke-linecap:round; stroke-linejoin:round; stroke-width:4; stroke-opacity:1; fill:none" points="309.454,228.65 392.883,228.65 "/>
<path clip-path="url(#clip740)" d="M423.292 209.911 L423.292 213.453 L419.218 213.453 Q416.926 213.453 416.023 214.379 Q415.144 215.305 415.144 217.712 L415.144 220.004 L422.158 220.004 L422.158 223.314 L415.144 223.314 L415.144 245.93 L410.861 245.93 L410.861 223.314 L406.787 223.314 L406.787 220.004 L410.861 220.004 L410.861 218.198 Q410.861 213.87 412.875 211.902 Q414.889 209.911 419.264 209.911 L423.292 209.911 Z" fill="#000000" fill-rule="nonzero" fill-opacity="1" /><path clip-path="url(#clip740)" d="M426.857 220.004 L431.116 220.004 L431.116 245.93 L426.857 245.93 L426.857 220.004 M426.857 209.911 L431.116 209.911 L431.116 215.305 L426.857 215.305 L426.857 209.911 Z" fill="#000000" fill-rule="nonzero" fill-opacity="1" /><path clip-path="url(#clip740)" d="M444.241 212.643 L444.241 220.004 L453.014 220.004 L453.014 223.314 L444.241 223.314 L444.241 237.388 Q444.241 240.559 445.097 241.462 Q445.977 242.365 448.639 242.365 L453.014 242.365 L453.014 245.93 L448.639 245.93 Q443.708 245.93 441.833 244.101 Q439.958 242.249 439.958 237.388 L439.958 223.314 L436.833 223.314 L436.833 220.004 L439.958 220.004 L439.958 212.643 L444.241 212.643 Z" fill="#000000" fill-rule="nonzero" fill-opacity="1" /><path clip-path="url(#clip740)" d="M488.708 223.985 Q487.991 223.569 487.134 223.384 Q486.301 223.175 485.282 223.175 Q481.671 223.175 479.727 225.536 Q477.805 227.874 477.805 232.272 L477.805 245.93 L473.523 245.93 L473.523 220.004 L477.805 220.004 L477.805 224.032 Q479.148 221.671 481.301 220.536 Q483.454 219.379 486.532 219.379 Q486.972 219.379 487.505 219.448 Q488.037 219.495 488.685 219.61 L488.708 223.985 Z" fill="#000000" fill-rule="nonzero" fill-opacity="1" /><path clip-path="url(#clip740)" d="M514.31 231.902 L514.31 233.985 L494.727 233.985 Q495.004 238.384 497.366 240.698 Q499.75 242.99 503.986 242.99 Q506.44 242.99 508.731 242.388 Q511.046 241.786 513.315 240.583 L513.315 244.61 Q511.023 245.583 508.616 246.092 Q506.208 246.601 503.731 246.601 Q497.528 246.601 493.893 242.99 Q490.282 239.379 490.282 233.222 Q490.282 226.856 493.708 223.129 Q497.157 219.379 502.991 219.379 Q508.222 219.379 511.254 222.759 Q514.31 226.115 514.31 231.902 M510.051 230.652 Q510.004 227.157 508.083 225.073 Q506.185 222.99 503.037 222.99 Q499.472 222.99 497.319 225.004 Q495.19 227.018 494.866 230.675 L510.051 230.652 Z" fill="#000000" fill-rule="nonzero" fill-opacity="1" /><path clip-path="url(#clip740)" d="M537.828 220.768 L537.828 224.796 Q536.023 223.87 534.078 223.407 Q532.134 222.944 530.051 222.944 Q526.879 222.944 525.282 223.916 Q523.708 224.888 523.708 226.833 Q523.708 228.314 524.842 229.171 Q525.977 230.004 529.402 230.768 L530.861 231.092 Q535.398 232.064 537.296 233.847 Q539.217 235.606 539.217 238.777 Q539.217 242.388 536.347 244.495 Q533.5 246.601 528.5 246.601 Q526.416 246.601 524.148 246.184 Q521.902 245.791 519.402 244.981 L519.402 240.583 Q521.764 241.809 524.055 242.434 Q526.347 243.036 528.592 243.036 Q531.602 243.036 533.222 242.018 Q534.842 240.976 534.842 239.101 Q534.842 237.365 533.662 236.439 Q532.504 235.513 528.546 234.657 L527.064 234.309 Q523.106 233.476 521.347 231.763 Q519.588 230.027 519.588 227.018 Q519.588 223.36 522.18 221.37 Q524.773 219.379 529.541 219.379 Q531.902 219.379 533.986 219.726 Q536.069 220.073 537.828 220.768 Z" fill="#000000" fill-rule="nonzero" fill-opacity="1" /><path clip-path="url(#clip740)" d="M545.56 235.698 L545.56 220.004 L549.819 220.004 L549.819 235.536 Q549.819 239.217 551.254 241.069 Q552.689 242.897 555.56 242.897 Q559.009 242.897 560.999 240.698 Q563.013 238.499 563.013 234.703 L563.013 220.004 L567.273 220.004 L567.273 245.93 L563.013 245.93 L563.013 241.948 Q561.462 244.309 559.402 245.467 Q557.365 246.601 554.657 246.601 Q550.189 246.601 547.875 243.823 Q545.56 241.046 545.56 235.698 M556.277 219.379 L556.277 219.379 Z" fill="#000000" fill-rule="nonzero" fill-opacity="1" /><path clip-path="url(#clip740)" d="M576.046 209.911 L580.305 209.911 L580.305 245.93 L576.046 245.93 L576.046 209.911 Z" fill="#000000" fill-rule="nonzero" fill-opacity="1" /><path clip-path="url(#clip740)" d="M593.43 212.643 L593.43 220.004 L602.203 220.004 L602.203 223.314 L593.43 223.314 L593.43 237.388 Q593.43 240.559 594.286 241.462 Q595.166 242.365 597.828 242.365 L602.203 242.365 L602.203 245.93 L597.828 245.93 Q592.897 245.93 591.022 244.101 Q589.147 242.249 589.147 237.388 L589.147 223.314 L586.023 223.314 L586.023 220.004 L589.147 220.004 L589.147 212.643 L593.43 212.643 Z" fill="#000000" fill-rule="nonzero" fill-opacity="1" /><circle clip-path="url(#clip740)" cx="351.168" cy="280.49" r="20.48" fill="#009af9" fill-rule="evenodd" fill-opacity="1" stroke="#000000" stroke-opacity="1" stroke-width="3.41333"/>
<path clip-path="url(#clip740)" d="M427.134 276.821 Q428.732 273.95 430.954 272.585 Q433.176 271.219 436.185 271.219 Q440.236 271.219 442.435 274.066 Q444.634 276.89 444.634 282.122 L444.634 297.77 L440.352 297.77 L440.352 282.261 Q440.352 278.534 439.033 276.728 Q437.713 274.923 435.005 274.923 Q431.695 274.923 429.773 277.122 Q427.852 279.321 427.852 283.117 L427.852 297.77 L423.57 297.77 L423.57 282.261 Q423.57 278.511 422.25 276.728 Q420.931 274.923 418.176 274.923 Q414.912 274.923 412.991 277.145 Q411.07 279.344 411.07 283.117 L411.07 297.77 L406.787 297.77 L406.787 271.844 L411.07 271.844 L411.07 275.872 Q412.528 273.488 414.565 272.353 Q416.602 271.219 419.403 271.219 Q422.227 271.219 424.195 272.654 Q426.185 274.089 427.134 276.821 Z" fill="#000000" fill-rule="nonzero" fill-opacity="1" /><path clip-path="url(#clip740)" d="M475.306 283.742 L475.306 285.825 L455.722 285.825 Q456 290.224 458.361 292.538 Q460.745 294.83 464.981 294.83 Q467.435 294.83 469.727 294.228 Q472.042 293.626 474.31 292.423 L474.31 296.45 Q472.018 297.423 469.611 297.932 Q467.204 298.441 464.727 298.441 Q458.523 298.441 454.889 294.83 Q451.278 291.219 451.278 285.062 Q451.278 278.696 454.704 274.969 Q458.153 271.219 463.986 271.219 Q469.218 271.219 472.25 274.599 Q475.306 277.955 475.306 283.742 M471.046 282.492 Q471 278.997 469.079 276.913 Q467.181 274.83 464.032 274.83 Q460.468 274.83 458.315 276.844 Q456.185 278.858 455.861 282.515 L471.046 282.492 Z" fill="#000000" fill-rule="nonzero" fill-opacity="1" /><path clip-path="url(#clip740)" d="M494.079 284.737 Q488.917 284.737 486.926 285.918 Q484.935 287.099 484.935 289.946 Q484.935 292.214 486.417 293.557 Q487.921 294.876 490.491 294.876 Q494.032 294.876 496.162 292.376 Q498.315 289.853 498.315 285.687 L498.315 284.737 L494.079 284.737 M502.574 282.978 L502.574 297.77 L498.315 297.77 L498.315 293.835 Q496.856 296.196 494.68 297.33 Q492.504 298.441 489.356 298.441 Q485.375 298.441 483.014 296.219 Q480.676 293.974 480.676 290.224 Q480.676 285.849 483.593 283.626 Q486.532 281.404 492.342 281.404 L498.315 281.404 L498.315 280.987 Q498.315 278.048 496.37 276.45 Q494.449 274.83 490.954 274.83 Q488.731 274.83 486.625 275.363 Q484.518 275.895 482.574 276.96 L482.574 273.025 Q484.912 272.122 487.111 271.682 Q489.31 271.219 491.393 271.219 Q497.018 271.219 499.796 274.136 Q502.574 277.052 502.574 282.978 Z" fill="#000000" fill-rule="nonzero" fill-opacity="1" /><path clip-path="url(#clip740)" d="M532.898 282.122 L532.898 297.77 L528.639 297.77 L528.639 282.261 Q528.639 278.58 527.203 276.751 Q525.768 274.923 522.898 274.923 Q519.449 274.923 517.458 277.122 Q515.467 279.321 515.467 283.117 L515.467 297.77 L511.185 297.77 L511.185 271.844 L515.467 271.844 L515.467 275.872 Q516.995 273.534 519.055 272.376 Q521.139 271.219 523.847 271.219 Q528.314 271.219 530.606 273.997 Q532.898 276.751 532.898 282.122 Z" fill="#000000" fill-rule="nonzero" fill-opacity="1" /><path clip-path="url(#clip740)" d="M553.407 271.844 L557.921 271.844 L566.023 293.603 L574.124 271.844 L578.638 271.844 L568.916 297.77 L563.129 297.77 L553.407 271.844 Z" fill="#000000" fill-rule="nonzero" fill-opacity="1" /><path clip-path="url(#clip740)" d="M596.3 284.737 Q591.138 284.737 589.147 285.918 Q587.157 287.099 587.157 289.946 Q587.157 292.214 588.638 293.557 Q590.143 294.876 592.712 294.876 Q596.254 294.876 598.384 292.376 Q600.536 289.853 600.536 285.687 L600.536 284.737 L596.3 284.737 M604.796 282.978 L604.796 297.77 L600.536 297.77 L600.536 293.835 Q599.078 296.196 596.902 297.33 Q594.726 298.441 591.578 298.441 Q587.597 298.441 585.235 296.219 Q582.898 293.974 582.898 290.224 Q582.898 285.849 585.814 283.626 Q588.754 281.404 594.564 281.404 L600.536 281.404 L600.536 280.987 Q600.536 278.048 598.592 276.45 Q596.671 274.83 593.175 274.83 Q590.953 274.83 588.847 275.363 Q586.74 275.895 584.796 276.96 L584.796 273.025 Q587.134 272.122 589.333 271.682 Q591.532 271.219 593.615 271.219 Q599.24 271.219 602.018 274.136 Q604.796 277.052 604.796 282.978 Z" fill="#000000" fill-rule="nonzero" fill-opacity="1" /><path clip-path="url(#clip740)" d="M613.569 261.751 L617.828 261.751 L617.828 297.77 L613.569 297.77 L613.569 261.751 Z" fill="#000000" fill-rule="nonzero" fill-opacity="1" /><path clip-path="url(#clip740)" d="M626.3 287.538 L626.3 271.844 L630.559 271.844 L630.559 287.376 Q630.559 291.057 631.994 292.909 Q633.43 294.737 636.3 294.737 Q639.749 294.737 641.74 292.538 Q643.754 290.339 643.754 286.543 L643.754 271.844 L648.013 271.844 L648.013 297.77 L643.754 297.77 L643.754 293.788 Q642.203 296.149 640.143 297.307 Q638.106 298.441 635.397 298.441 Q630.93 298.441 628.615 295.663 Q626.3 292.886 626.3 287.538 M637.018 271.219 L637.018 271.219 Z" fill="#000000" fill-rule="nonzero" fill-opacity="1" /><path clip-path="url(#clip740)" d="M678.962 283.742 L678.962 285.825 L659.379 285.825 Q659.656 290.224 662.017 292.538 Q664.402 294.83 668.638 294.83 Q671.091 294.83 673.383 294.228 Q675.698 293.626 677.966 292.423 L677.966 296.45 Q675.675 297.423 673.267 297.932 Q670.86 298.441 668.383 298.441 Q662.18 298.441 658.545 294.83 Q654.934 291.219 654.934 285.062 Q654.934 278.696 658.36 274.969 Q661.809 271.219 667.642 271.219 Q672.874 271.219 675.906 274.599 Q678.962 277.955 678.962 283.742 M674.703 282.492 Q674.656 278.997 672.735 276.913 Q670.837 274.83 667.689 274.83 Q664.124 274.83 661.971 276.844 Q659.842 278.858 659.517 282.515 L674.703 282.492 Z" fill="#000000" fill-rule="nonzero" fill-opacity="1" /><path clip-path="url(#clip740)" d="M702.48 272.608 L702.48 276.636 Q700.675 275.71 698.73 275.247 Q696.786 274.784 694.702 274.784 Q691.531 274.784 689.934 275.756 Q688.36 276.728 688.36 278.673 Q688.36 280.154 689.494 281.011 Q690.628 281.844 694.054 282.608 L695.513 282.932 Q700.05 283.904 701.948 285.687 Q703.869 287.446 703.869 290.617 Q703.869 294.228 700.999 296.335 Q698.152 298.441 693.152 298.441 Q691.068 298.441 688.8 298.024 Q686.554 297.631 684.054 296.821 L684.054 292.423 Q686.415 293.649 688.707 294.274 Q690.999 294.876 693.244 294.876 Q696.253 294.876 697.874 293.858 Q699.494 292.816 699.494 290.941 Q699.494 289.205 698.314 288.279 Q697.156 287.353 693.198 286.497 L691.716 286.149 Q687.758 285.316 685.999 283.603 Q684.24 281.867 684.24 278.858 Q684.24 275.2 686.832 273.21 Q689.425 271.219 694.193 271.219 Q696.554 271.219 698.638 271.566 Q700.721 271.913 702.48 272.608 Z" fill="#000000" fill-rule="nonzero" fill-opacity="1" /><path clip-path="url(#clip740)" d="M1854.08 1008.94 L3105.51 1008.94 L3105.51 94.4882 L1854.08 94.4882  Z" fill="#ffffff" fill-rule="evenodd" fill-opacity="1"/>
<defs>
  <clipPath id="clip743">
    <rect x="1854" y="94" width="1252" height="915"/>
  </clipPath>
</defs>
<polyline clip-path="url(#clip743)" style="stroke:#000000; stroke-linecap:round; stroke-linejoin:round; stroke-width:2; stroke-opacity:0.1; fill:none" points="2007.56,1008.94 2007.56,94.4882 "/>
<polyline clip-path="url(#clip743)" style="stroke:#000000; stroke-linecap:round; stroke-linejoin:round; stroke-width:2; stroke-opacity:0.1; fill:none" points="2597.85,1008.94 2597.85,94.4882 "/>
<polyline clip-path="url(#clip740)" style="stroke:#000000; stroke-linecap:round; stroke-linejoin:round; stroke-width:4; stroke-opacity:1; fill:none" points="1854.08,1008.94 3105.51,1008.94 "/>
<polyline clip-path="url(#clip740)" style="stroke:#000000; stroke-linecap:round; stroke-linejoin:round; stroke-width:4; stroke-opacity:1; fill:none" points="2007.56,1008.94 2007.56,990.039 "/>
<polyline clip-path="url(#clip740)" style="stroke:#000000; stroke-linecap:round; stroke-linejoin:round; stroke-width:4; stroke-opacity:1; fill:none" points="2597.85,1008.94 2597.85,990.039 "/>
<path clip-path="url(#clip740)" d="M1944.92 1089.46 L1952.56 1089.46 L1952.56 1063.1 L1944.25 1064.76 L1944.25 1060.5 L1952.51 1058.84 L1957.19 1058.84 L1957.19 1089.46 L1964.83 1089.46 L1964.83 1093.4 L1944.92 1093.4 L1944.92 1089.46 Z" fill="#000000" fill-rule="nonzero" fill-opacity="1" /><path clip-path="url(#clip740)" d="M1984.27 1061.92 Q1980.66 1061.92 1978.83 1065.48 Q1977.03 1069.02 1977.03 1076.15 Q1977.03 1083.26 1978.83 1086.82 Q1980.66 1090.36 1984.27 1090.36 Q1987.9 1090.36 1989.71 1086.82 Q1991.54 1083.26 1991.54 1076.15 Q1991.54 1069.02 1989.71 1065.48 Q1987.9 1061.92 1984.27 1061.92 M1984.27 1058.21 Q1990.08 1058.21 1993.14 1062.82 Q1996.21 1067.4 1996.21 1076.15 Q1996.21 1084.88 1993.14 1089.48 Q1990.08 1094.07 1984.27 1094.07 Q1978.46 1094.07 1975.38 1089.48 Q1972.33 1084.88 1972.33 1076.15 Q1972.33 1067.4 1975.38 1062.82 Q1978.46 1058.21 1984.27 1058.21 Z" fill="#000000" fill-rule="nonzero" fill-opacity="1" /><path clip-path="url(#clip740)" d="M1996.21 1052.31 L2020.33 1052.31 L2020.33 1055.51 L1996.21 1055.51 L1996.21 1052.31 Z" fill="#000000" fill-rule="nonzero" fill-opacity="1" /><path clip-path="url(#clip740)" d="M2029.18 1062.79 L2035.39 1062.79 L2035.39 1041.37 L2028.64 1042.72 L2028.64 1039.26 L2035.35 1037.91 L2039.15 1037.91 L2039.15 1062.79 L2045.36 1062.79 L2045.36 1065.99 L2029.18 1065.99 L2029.18 1062.79 Z" fill="#000000" fill-rule="nonzero" fill-opacity="1" /><path clip-path="url(#clip740)" d="M2061.16 1040.41 Q2058.22 1040.41 2056.74 1043.3 Q2055.27 1046.18 2055.27 1051.97 Q2055.27 1057.75 2056.74 1060.64 Q2058.22 1063.52 2061.16 1063.52 Q2064.11 1063.52 2065.58 1060.64 Q2067.06 1057.75 2067.06 1051.97 Q2067.06 1046.18 2065.58 1043.3 Q2064.11 1040.41 2061.16 1040.41 M2061.16 1037.4 Q2065.88 1037.4 2068.36 1041.14 Q2070.86 1044.86 2070.86 1051.97 Q2070.86 1059.06 2068.36 1062.81 Q2065.88 1066.53 2061.16 1066.53 Q2056.44 1066.53 2053.94 1062.81 Q2051.45 1059.06 2051.45 1051.97 Q2051.45 1044.86 2053.94 1041.14 Q2056.44 1037.4 2061.16 1037.4 Z" fill="#000000" fill-rule="nonzero" fill-opacity="1" /><path clip-path="url(#clip740)" d="M2547.88 1089.46 L2555.51 1089.46 L2555.51 1063.1 L2547.2 1064.76 L2547.2 1060.5 L2555.47 1058.84 L2560.14 1058.84 L2560.14 1089.46 L2567.78 1089.46 L2567.78 1093.4 L2547.88 1093.4 L2547.88 1089.46 Z" fill="#000000" fill-rule="nonzero" fill-opacity="1" /><path clip-path="url(#clip740)" d="M2587.23 1061.92 Q2583.62 1061.92 2581.79 1065.48 Q2579.98 1069.02 2579.98 1076.15 Q2579.98 1083.26 2581.79 1086.82 Q2583.62 1090.36 2587.23 1090.36 Q2590.86 1090.36 2592.67 1086.82 Q2594.5 1083.26 2594.5 1076.15 Q2594.5 1069.02 2592.67 1065.48 Q2590.86 1061.92 2587.23 1061.92 M2587.23 1058.21 Q2593.04 1058.21 2596.09 1062.82 Q2599.17 1067.4 2599.17 1076.15 Q2599.17 1084.88 2596.09 1089.48 Q2593.04 1094.07 2587.23 1094.07 Q2581.42 1094.07 2578.34 1089.48 Q2575.28 1084.88 2575.28 1076.15 Q2575.28 1067.4 2578.34 1062.82 Q2581.42 1058.21 2587.23 1058.21 Z" fill="#000000" fill-rule="nonzero" fill-opacity="1" /><path clip-path="url(#clip740)" d="M2599.17 1052.31 L2623.28 1052.31 L2623.28 1055.51 L2599.17 1055.51 L2599.17 1052.31 Z" fill="#000000" fill-rule="nonzero" fill-opacity="1" /><path clip-path="url(#clip740)" d="M2631.52 1037.91 L2646.44 1037.91 L2646.44 1041.1 L2635 1041.1 L2635 1047.99 Q2635.83 1047.7 2636.66 1047.57 Q2637.48 1047.42 2638.31 1047.42 Q2643.01 1047.42 2645.76 1050 Q2648.5 1052.58 2648.5 1056.98 Q2648.5 1061.51 2645.68 1064.03 Q2642.86 1066.53 2637.73 1066.53 Q2635.96 1066.53 2634.12 1066.23 Q2632.29 1065.93 2630.34 1065.33 L2630.34 1061.51 Q2632.03 1062.43 2633.83 1062.88 Q2635.64 1063.33 2637.65 1063.33 Q2640.91 1063.33 2642.81 1061.62 Q2644.71 1059.91 2644.71 1056.98 Q2644.71 1054.04 2642.81 1052.33 Q2640.91 1050.62 2637.65 1050.62 Q2636.13 1050.62 2634.61 1050.96 Q2633.1 1051.3 2631.52 1052.01 L2631.52 1037.91 Z" fill="#000000" fill-rule="nonzero" fill-opacity="1" /><path clip-path="url(#clip740)" d="M2427.29 1136.71 L2433.72 1136.71 L2433.72 1156.79 L2455.05 1136.71 L2463.32 1136.71 L2439.74 1158.86 L2465.01 1184.23 L2456.54 1184.23 L2433.72 1161.34 L2433.72 1184.23 L2427.29 1184.23 L2427.29 1136.71 Z" fill="#000000" fill-rule="nonzero" fill-opacity="1" /><path clip-path="url(#clip740)" d="M2496.87 1195.05 L2496.87 1199.6 L2463.01 1199.6 L2463.01 1195.05 L2496.87 1195.05 Z" fill="#000000" fill-rule="nonzero" fill-opacity="1" /><path clip-path="url(#clip740)" d="M2519.85 1177.73 Q2521 1179.26 2524.43 1179.26 L2527.27 1179.26 L2527.27 1184.23 L2523.73 1184.23 Q2518 1184.23 2515.39 1181.17 Q2512.78 1178.05 2512.78 1171.3 L2512.78 1154.43 L2499.42 1154.43 L2499.42 1148.58 L2532.3 1148.58 L2532.3 1154.43 L2518.77 1154.43 L2518.77 1171.65 Q2518.77 1176.27 2519.85 1177.73 Z" fill="#000000" fill-rule="nonzero" fill-opacity="1" /><polyline clip-path="url(#clip743)" style="stroke:#000000; stroke-linecap:round; stroke-linejoin:round; stroke-width:2; stroke-opacity:0.1; fill:none" points="1854.08,983.056 3105.51,983.056 "/>
<polyline clip-path="url(#clip743)" style="stroke:#000000; stroke-linecap:round; stroke-linejoin:round; stroke-width:2; stroke-opacity:0.1; fill:none" points="1854.08,853.726 3105.51,853.726 "/>
<polyline clip-path="url(#clip743)" style="stroke:#000000; stroke-linecap:round; stroke-linejoin:round; stroke-width:2; stroke-opacity:0.1; fill:none" points="1854.08,724.396 3105.51,724.396 "/>
<polyline clip-path="url(#clip743)" style="stroke:#000000; stroke-linecap:round; stroke-linejoin:round; stroke-width:2; stroke-opacity:0.1; fill:none" points="1854.08,595.066 3105.51,595.066 "/>
<polyline clip-path="url(#clip743)" style="stroke:#000000; stroke-linecap:round; stroke-linejoin:round; stroke-width:2; stroke-opacity:0.1; fill:none" points="1854.08,465.737 3105.51,465.737 "/>
<polyline clip-path="url(#clip743)" style="stroke:#000000; stroke-linecap:round; stroke-linejoin:round; stroke-width:2; stroke-opacity:0.1; fill:none" points="1854.08,336.407 3105.51,336.407 "/>
<polyline clip-path="url(#clip743)" style="stroke:#000000; stroke-linecap:round; stroke-linejoin:round; stroke-width:2; stroke-opacity:0.1; fill:none" points="1854.08,207.077 3105.51,207.077 "/>
<polyline clip-path="url(#clip740)" style="stroke:#000000; stroke-linecap:round; stroke-linejoin:round; stroke-width:4; stroke-opacity:1; fill:none" points="1854.08,1008.94 1854.08,94.4882 "/>
<polyline clip-path="url(#clip740)" style="stroke:#000000; stroke-linecap:round; stroke-linejoin:round; stroke-width:4; stroke-opacity:1; fill:none" points="1854.08,983.056 1872.97,983.056 "/>
<polyline clip-path="url(#clip740)" style="stroke:#000000; stroke-linecap:round; stroke-linejoin:round; stroke-width:4; stroke-opacity:1; fill:none" points="1854.08,853.726 1872.97,853.726 "/>
<polyline clip-path="url(#clip740)" style="stroke:#000000; stroke-linecap:round; stroke-linejoin:round; stroke-width:4; stroke-opacity:1; fill:none" points="1854.08,724.396 1872.97,724.396 "/>
<polyline clip-path="url(#clip740)" style="stroke:#000000; stroke-linecap:round; stroke-linejoin:round; stroke-width:4; stroke-opacity:1; fill:none" points="1854.08,595.066 1872.97,595.066 "/>
<polyline clip-path="url(#clip740)" style="stroke:#000000; stroke-linecap:round; stroke-linejoin:round; stroke-width:4; stroke-opacity:1; fill:none" points="1854.08,465.737 1872.97,465.737 "/>
<polyline clip-path="url(#clip740)" style="stroke:#000000; stroke-linecap:round; stroke-linejoin:round; stroke-width:4; stroke-opacity:1; fill:none" points="1854.08,336.407 1872.97,336.407 "/>
<polyline clip-path="url(#clip740)" style="stroke:#000000; stroke-linecap:round; stroke-linejoin:round; stroke-width:4; stroke-opacity:1; fill:none" points="1854.08,207.077 1872.97,207.077 "/>
<path clip-path="url(#clip740)" d="M1748.9 968.855 Q1745.29 968.855 1743.46 972.419 Q1741.66 975.961 1741.66 983.091 Q1741.66 990.197 1743.46 993.762 Q1745.29 997.303 1748.9 997.303 Q1752.54 997.303 1754.34 993.762 Q1756.17 990.197 1756.17 983.091 Q1756.17 975.961 1754.34 972.419 Q1752.54 968.855 1748.9 968.855 M1748.9 965.151 Q1754.71 965.151 1757.77 969.757 Q1760.85 974.341 1760.85 983.091 Q1760.85 991.817 1757.77 996.424 Q1754.71 1001.01 1748.9 1001.01 Q1743.09 1001.01 1740.01 996.424 Q1736.96 991.817 1736.96 983.091 Q1736.96 974.341 1740.01 969.757 Q1743.09 965.151 1748.9 965.151 Z" fill="#000000" fill-rule="nonzero" fill-opacity="1" /><path clip-path="url(#clip740)" d="M1769.06 994.456 L1773.95 994.456 L1773.95 1000.34 L1769.06 1000.34 L1769.06 994.456 Z" fill="#000000" fill-rule="nonzero" fill-opacity="1" /><path clip-path="url(#clip740)" d="M1794.13 968.855 Q1790.52 968.855 1788.69 972.419 Q1786.89 975.961 1786.89 983.091 Q1786.89 990.197 1788.69 993.762 Q1790.52 997.303 1794.13 997.303 Q1797.77 997.303 1799.57 993.762 Q1801.4 990.197 1801.4 983.091 Q1801.4 975.961 1799.57 972.419 Q1797.77 968.855 1794.13 968.855 M1794.13 965.151 Q1799.94 965.151 1803 969.757 Q1806.08 974.341 1806.08 983.091 Q1806.08 991.817 1803 996.424 Q1799.94 1001.01 1794.13 1001.01 Q1788.32 1001.01 1785.24 996.424 Q1782.19 991.817 1782.19 983.091 Q1782.19 974.341 1785.24 969.757 Q1788.32 965.151 1794.13 965.151 Z" fill="#000000" fill-rule="nonzero" fill-opacity="1" /><path clip-path="url(#clip740)" d="M1750.5 839.525 Q1746.89 839.525 1745.06 843.09 Q1743.25 846.631 1743.25 853.761 Q1743.25 860.867 1745.06 864.432 Q1746.89 867.974 1750.5 867.974 Q1754.13 867.974 1755.94 864.432 Q1757.77 860.867 1757.77 853.761 Q1757.77 846.631 1755.94 843.09 Q1754.13 839.525 1750.5 839.525 M1750.5 835.821 Q1756.31 835.821 1759.36 840.427 Q1762.44 845.011 1762.44 853.761 Q1762.44 862.488 1759.36 867.094 Q1756.31 871.677 1750.5 871.677 Q1744.69 871.677 1741.61 867.094 Q1738.55 862.488 1738.55 853.761 Q1738.55 845.011 1741.61 840.427 Q1744.69 835.821 1750.5 835.821 Z" fill="#000000" fill-rule="nonzero" fill-opacity="1" /><path clip-path="url(#clip740)" d="M1770.66 865.126 L1775.55 865.126 L1775.55 871.006 L1770.66 871.006 L1770.66 865.126 Z" fill="#000000" fill-rule="nonzero" fill-opacity="1" /><path clip-path="url(#clip740)" d="M1789.76 867.071 L1806.08 867.071 L1806.08 871.006 L1784.13 871.006 L1784.13 867.071 Q1786.8 864.316 1791.38 859.687 Q1795.98 855.034 1797.17 853.691 Q1799.41 851.168 1800.29 849.432 Q1801.19 847.673 1801.19 845.983 Q1801.19 843.228 1799.25 841.492 Q1797.33 839.756 1794.23 839.756 Q1792.03 839.756 1789.57 840.52 Q1787.14 841.284 1784.36 842.835 L1784.36 838.113 Q1787.19 836.978 1789.64 836.4 Q1792.1 835.821 1794.13 835.821 Q1799.5 835.821 1802.7 838.506 Q1805.89 841.191 1805.89 845.682 Q1805.89 847.812 1805.08 849.733 Q1804.29 851.631 1802.19 854.224 Q1801.61 854.895 1798.51 858.113 Q1795.41 861.307 1789.76 867.071 Z" fill="#000000" fill-rule="nonzero" fill-opacity="1" /><path clip-path="url(#clip740)" d="M1748.42 710.195 Q1744.8 710.195 1742.98 713.76 Q1741.17 717.301 1741.17 724.431 Q1741.17 731.537 1742.98 735.102 Q1744.8 738.644 1748.42 738.644 Q1752.05 738.644 1753.86 735.102 Q1755.68 731.537 1755.68 724.431 Q1755.68 717.301 1753.86 713.76 Q1752.05 710.195 1748.42 710.195 M1748.42 706.491 Q1754.23 706.491 1757.28 711.098 Q1760.36 715.681 1760.36 724.431 Q1760.36 733.158 1757.28 737.764 Q1754.23 742.347 1748.42 742.347 Q1742.61 742.347 1739.53 737.764 Q1736.47 733.158 1736.47 724.431 Q1736.47 715.681 1739.53 711.098 Q1742.61 706.491 1748.42 706.491 Z" fill="#000000" fill-rule="nonzero" fill-opacity="1" /><path clip-path="url(#clip740)" d="M1768.58 735.797 L1773.46 735.797 L1773.46 741.676 L1768.58 741.676 L1768.58 735.797 Z" fill="#000000" fill-rule="nonzero" fill-opacity="1" /><path clip-path="url(#clip740)" d="M1796.49 711.19 L1784.69 729.639 L1796.49 729.639 L1796.49 711.19 M1795.27 707.116 L1801.15 707.116 L1801.15 729.639 L1806.08 729.639 L1806.08 733.528 L1801.15 733.528 L1801.15 741.676 L1796.49 741.676 L1796.49 733.528 L1780.89 733.528 L1780.89 729.014 L1795.27 707.116 Z" fill="#000000" fill-rule="nonzero" fill-opacity="1" /><path clip-path="url(#clip740)" d="M1748.74 580.865 Q1745.13 580.865 1743.3 584.43 Q1741.49 587.972 1741.49 595.101 Q1741.49 602.208 1743.3 605.772 Q1745.13 609.314 1748.74 609.314 Q1752.37 609.314 1754.18 605.772 Q1756.01 602.208 1756.01 595.101 Q1756.01 587.972 1754.18 584.43 Q1752.37 580.865 1748.74 580.865 M1748.74 577.161 Q1754.55 577.161 1757.61 581.768 Q1760.68 586.351 1760.68 595.101 Q1760.68 603.828 1757.61 608.434 Q1754.55 613.018 1748.74 613.018 Q1742.93 613.018 1739.85 608.434 Q1736.8 603.828 1736.8 595.101 Q1736.8 586.351 1739.85 581.768 Q1742.93 577.161 1748.74 577.161 Z" fill="#000000" fill-rule="nonzero" fill-opacity="1" /><path clip-path="url(#clip740)" d="M1768.9 606.467 L1773.79 606.467 L1773.79 612.346 L1768.9 612.346 L1768.9 606.467 Z" fill="#000000" fill-rule="nonzero" fill-opacity="1" /><path clip-path="url(#clip740)" d="M1794.55 593.203 Q1791.4 593.203 1789.55 595.356 Q1787.72 597.508 1787.72 601.258 Q1787.72 604.985 1789.55 607.161 Q1791.4 609.314 1794.55 609.314 Q1797.7 609.314 1799.53 607.161 Q1801.38 604.985 1801.38 601.258 Q1801.38 597.508 1799.53 595.356 Q1797.7 593.203 1794.55 593.203 M1803.83 578.55 L1803.83 582.809 Q1802.07 581.976 1800.27 581.536 Q1798.48 581.097 1796.73 581.097 Q1792.1 581.097 1789.64 584.222 Q1787.21 587.347 1786.86 593.666 Q1788.23 591.652 1790.29 590.587 Q1792.35 589.499 1794.83 589.499 Q1800.04 589.499 1803.04 592.671 Q1806.08 595.819 1806.08 601.258 Q1806.08 606.583 1802.93 609.8 Q1799.78 613.018 1794.55 613.018 Q1788.55 613.018 1785.38 608.434 Q1782.21 603.828 1782.21 595.101 Q1782.21 586.907 1786.1 582.046 Q1789.99 577.161 1796.54 577.161 Q1798.3 577.161 1800.08 577.509 Q1801.89 577.856 1803.83 578.55 Z" fill="#000000" fill-rule="nonzero" fill-opacity="1" /><path clip-path="url(#clip740)" d="M1748.99 451.535 Q1745.38 451.535 1743.55 455.1 Q1741.75 458.642 1741.75 465.771 Q1741.75 472.878 1743.55 476.443 Q1745.38 479.984 1748.99 479.984 Q1752.63 479.984 1754.43 476.443 Q1756.26 472.878 1756.26 465.771 Q1756.26 458.642 1754.43 455.1 Q1752.63 451.535 1748.99 451.535 M1748.99 447.832 Q1754.8 447.832 1757.86 452.438 Q1760.94 457.021 1760.94 465.771 Q1760.94 474.498 1757.86 479.105 Q1754.8 483.688 1748.99 483.688 Q1743.18 483.688 1740.11 479.105 Q1737.05 474.498 1737.05 465.771 Q1737.05 457.021 1740.11 452.438 Q1743.18 447.832 1748.99 447.832 Z" fill="#000000" fill-rule="nonzero" fill-opacity="1" /><path clip-path="url(#clip740)" d="M1769.16 477.137 L1774.04 477.137 L1774.04 483.017 L1769.16 483.017 L1769.16 477.137 Z" fill="#000000" fill-rule="nonzero" fill-opacity="1" /><path clip-path="url(#clip740)" d="M1794.23 466.605 Q1790.89 466.605 1788.97 468.387 Q1787.07 470.169 1787.07 473.294 Q1787.07 476.419 1788.97 478.202 Q1790.89 479.984 1794.23 479.984 Q1797.56 479.984 1799.48 478.202 Q1801.4 476.396 1801.4 473.294 Q1801.4 470.169 1799.48 468.387 Q1797.58 466.605 1794.23 466.605 M1789.55 464.614 Q1786.54 463.873 1784.85 461.813 Q1783.18 459.753 1783.18 456.79 Q1783.18 452.646 1786.12 450.239 Q1789.09 447.832 1794.23 447.832 Q1799.39 447.832 1802.33 450.239 Q1805.27 452.646 1805.27 456.79 Q1805.27 459.753 1803.58 461.813 Q1801.91 463.873 1798.92 464.614 Q1802.3 465.401 1804.18 467.693 Q1806.08 469.984 1806.08 473.294 Q1806.08 478.318 1803 481.003 Q1799.94 483.688 1794.23 483.688 Q1788.51 483.688 1785.43 481.003 Q1782.37 478.318 1782.37 473.294 Q1782.37 469.984 1784.27 467.693 Q1786.17 465.401 1789.55 464.614 M1787.84 457.23 Q1787.84 459.915 1789.5 461.419 Q1791.19 462.924 1794.23 462.924 Q1797.23 462.924 1798.92 461.419 Q1800.64 459.915 1800.64 457.23 Q1800.64 454.544 1798.92 453.04 Q1797.23 451.535 1794.23 451.535 Q1791.19 451.535 1789.5 453.04 Q1787.84 454.544 1787.84 457.23 Z" fill="#000000" fill-rule="nonzero" fill-opacity="1" /><path clip-path="url(#clip740)" d="M1739.71 349.752 L1747.35 349.752 L1747.35 323.386 L1739.04 325.053 L1739.04 320.793 L1747.3 319.127 L1751.98 319.127 L1751.98 349.752 L1759.62 349.752 L1759.62 353.687 L1739.71 353.687 L1739.71 349.752 Z" fill="#000000" fill-rule="nonzero" fill-opacity="1" /><path clip-path="url(#clip740)" d="M1769.06 347.807 L1773.95 347.807 L1773.95 353.687 L1769.06 353.687 L1769.06 347.807 Z" fill="#000000" fill-rule="nonzero" fill-opacity="1" /><path clip-path="url(#clip740)" d="M1794.13 322.205 Q1790.52 322.205 1788.69 325.77 Q1786.89 329.312 1786.89 336.441 Q1786.89 343.548 1788.69 347.113 Q1790.52 350.654 1794.13 350.654 Q1797.77 350.654 1799.57 347.113 Q1801.4 343.548 1801.4 336.441 Q1801.4 329.312 1799.57 325.77 Q1797.77 322.205 1794.13 322.205 M1794.13 318.502 Q1799.94 318.502 1803 323.108 Q1806.08 327.692 1806.08 336.441 Q1806.08 345.168 1803 349.775 Q1799.94 354.358 1794.13 354.358 Q1788.32 354.358 1785.24 349.775 Q1782.19 345.168 1782.19 336.441 Q1782.19 327.692 1785.24 323.108 Q1788.32 318.502 1794.13 318.502 Z" fill="#000000" fill-rule="nonzero" fill-opacity="1" /><path clip-path="url(#clip740)" d="M1741.31 220.422 L1748.95 220.422 L1748.95 194.056 L1740.64 195.723 L1740.64 191.464 L1748.9 189.797 L1753.58 189.797 L1753.58 220.422 L1761.22 220.422 L1761.22 224.357 L1741.31 224.357 L1741.31 220.422 Z" fill="#000000" fill-rule="nonzero" fill-opacity="1" /><path clip-path="url(#clip740)" d="M1770.66 218.477 L1775.55 218.477 L1775.55 224.357 L1770.66 224.357 L1770.66 218.477 Z" fill="#000000" fill-rule="nonzero" fill-opacity="1" /><path clip-path="url(#clip740)" d="M1789.76 220.422 L1806.08 220.422 L1806.08 224.357 L1784.13 224.357 L1784.13 220.422 Q1786.8 217.667 1791.38 213.038 Q1795.98 208.385 1797.17 207.042 Q1799.41 204.519 1800.29 202.783 Q1801.19 201.024 1801.19 199.334 Q1801.19 196.579 1799.25 194.843 Q1797.33 193.107 1794.23 193.107 Q1792.03 193.107 1789.57 193.871 Q1787.14 194.635 1784.36 196.186 L1784.36 191.464 Q1787.19 190.329 1789.64 189.751 Q1792.1 189.172 1794.13 189.172 Q1799.5 189.172 1802.7 191.857 Q1805.89 194.542 1805.89 199.033 Q1805.89 201.163 1805.08 203.084 Q1804.29 204.982 1802.19 207.575 Q1801.61 208.246 1798.51 211.463 Q1795.41 214.658 1789.76 220.422 Z" fill="#000000" fill-rule="nonzero" fill-opacity="1" /><path clip-path="url(#clip740)" d="M1643.98 642.44 L1624.69 642.44 L1624.69 636.583 L1674.22 636.583 L1674.22 642.44 L1668.87 642.44 Q1672.05 644.286 1673.61 647.118 Q1675.14 649.919 1675.14 653.866 Q1675.14 660.327 1669.98 664.401 Q1664.83 668.443 1656.42 668.443 Q1648.02 668.443 1642.86 664.401 Q1637.71 660.327 1637.71 653.866 Q1637.71 649.919 1639.27 647.118 Q1640.8 644.286 1643.98 642.44 M1656.42 662.396 Q1662.88 662.396 1666.58 659.754 Q1670.24 657.081 1670.24 652.434 Q1670.24 647.787 1666.58 645.113 Q1662.88 642.44 1656.42 642.44 Q1649.96 642.44 1646.3 645.113 Q1642.61 647.787 1642.61 652.434 Q1642.61 657.081 1646.3 659.754 Q1649.96 662.396 1656.42 662.396 Z" fill="#000000" fill-rule="nonzero" fill-opacity="1" /><path clip-path="url(#clip740)" d="M1654.93 594.028 L1657.79 594.028 L1657.79 620.955 Q1663.84 620.573 1667.02 617.327 Q1670.17 614.049 1670.17 608.224 Q1670.17 604.85 1669.35 601.699 Q1668.52 598.516 1666.86 595.397 L1672.4 595.397 Q1673.74 598.548 1674.44 601.858 Q1675.14 605.168 1675.14 608.574 Q1675.14 617.104 1670.17 622.101 Q1665.21 627.066 1656.74 627.066 Q1647.99 627.066 1642.86 622.356 Q1637.71 617.613 1637.71 609.593 Q1637.71 602.399 1642.35 598.23 Q1646.97 594.028 1654.93 594.028 M1653.21 599.885 Q1648.4 599.948 1645.54 602.59 Q1642.67 605.2 1642.67 609.529 Q1642.67 614.43 1645.44 617.39 Q1648.21 620.319 1653.24 620.764 L1653.21 599.885 Z" fill="#000000" fill-rule="nonzero" fill-opacity="1" /><path clip-path="url(#clip740)" d="M1652.7 554.784 L1674.22 554.784 L1674.22 560.64 L1652.89 560.64 Q1647.83 560.64 1645.31 562.614 Q1642.8 564.587 1642.8 568.534 Q1642.8 573.276 1645.82 576.013 Q1648.85 578.751 1654.07 578.751 L1674.22 578.751 L1674.22 584.639 L1638.57 584.639 L1638.57 578.751 L1644.11 578.751 Q1640.89 576.65 1639.3 573.817 Q1637.71 570.953 1637.71 567.229 Q1637.71 561.086 1641.53 557.935 Q1645.31 554.784 1652.7 554.784 Z" fill="#000000" fill-rule="nonzero" fill-opacity="1" /><path clip-path="url(#clip740)" d="M1639.62 520.377 L1645.16 520.377 Q1643.88 522.86 1643.25 525.533 Q1642.61 528.207 1642.61 531.072 Q1642.61 535.432 1643.95 537.628 Q1645.28 539.793 1647.96 539.793 Q1649.99 539.793 1651.17 538.233 Q1652.32 536.673 1653.37 531.963 L1653.81 529.958 Q1655.15 523.719 1657.6 521.109 Q1660.02 518.467 1664.38 518.467 Q1669.35 518.467 1672.24 522.414 Q1675.14 526.329 1675.14 533.204 Q1675.14 536.069 1674.57 539.188 Q1674.02 542.275 1672.91 545.713 L1666.86 545.713 Q1668.55 542.466 1669.41 539.315 Q1670.24 536.164 1670.24 533.077 Q1670.24 528.939 1668.84 526.711 Q1667.4 524.483 1664.83 524.483 Q1662.44 524.483 1661.17 526.106 Q1659.89 527.698 1658.71 533.14 L1658.24 535.177 Q1657.09 540.62 1654.74 543.039 Q1652.35 545.458 1648.21 545.458 Q1643.18 545.458 1640.45 541.893 Q1637.71 538.328 1637.71 531.772 Q1637.71 528.525 1638.19 525.661 Q1638.66 522.796 1639.62 520.377 Z" fill="#000000" fill-rule="nonzero" fill-opacity="1" /><path clip-path="url(#clip740)" d="M1638.57 509.142 L1638.57 503.285 L1674.22 503.285 L1674.22 509.142 L1638.57 509.142 M1624.69 509.142 L1624.69 503.285 L1632.11 503.285 L1632.11 509.142 L1624.69 509.142 Z" fill="#000000" fill-rule="nonzero" fill-opacity="1" /><path clip-path="url(#clip740)" d="M1628.45 485.238 L1638.57 485.238 L1638.57 473.175 L1643.12 473.175 L1643.12 485.238 L1662.47 485.238 Q1666.83 485.238 1668.07 484.061 Q1669.31 482.851 1669.31 479.191 L1669.31 473.175 L1674.22 473.175 L1674.22 479.191 Q1674.22 485.97 1671.7 488.549 Q1669.15 491.127 1662.47 491.127 L1643.12 491.127 L1643.12 495.424 L1638.57 495.424 L1638.57 491.127 L1628.45 491.127 L1628.45 485.238 Z" fill="#000000" fill-rule="nonzero" fill-opacity="1" /><path clip-path="url(#clip740)" d="M1677.53 450.641 Q1683.89 453.123 1685.83 455.479 Q1687.77 457.834 1687.77 461.781 L1687.77 466.46 L1682.87 466.46 L1682.87 463.022 Q1682.87 460.603 1681.73 459.266 Q1680.58 457.93 1676.32 456.306 L1673.64 455.256 L1638.57 469.674 L1638.57 463.468 L1666.45 452.328 L1638.57 441.188 L1638.57 434.981 L1677.53 450.641 Z" fill="#000000" fill-rule="nonzero" fill-opacity="1" /><path clip-path="url(#clip743)" d="M1889.5 982.177 L2266.59 982.177 L2266.59 983.056 L2302.11 983.056 L2302.11 983.056 L2337.64 983.056 L2337.64 983.056 L2373.18 983.056 L2373.18 949.5 L2408.72 949.5 L2408.72 611.284 L2429.51 611.284 L2429.51 386.48 L2444.26 386.48 L2444.26 253.393 L2465.04 253.393 L2465.04 229.77 L2479.79 229.77 L2479.79 271.779 L2496.36 271.779 L2496.36 381.364 L2508.87 381.364 L2508.87 537.846 L2527.3 537.846 L2527.3 746.163 L2551.53 746.163 L2551.53 948.614 L2580.32 948.614 L2580.32 983.056 L2612.12 983.056 L2612.12 939.68 L2645.68 939.68 L2645.68 677.555 L2665.79 677.555 L2665.79 401.525 L2680.2 401.525 L2680.2 180.438 L2700.64 180.438 L2700.64 120.369 L2715.22 120.369 L2715.22 200.773 L2735.84 200.773 L2735.84 452.319 L2750.5 452.319 L2750.5 767.959 L2785.91 767.959 L2785.91 974.247 L2821.38 974.247 L2821.38 979.828 L2856.89 979.828 L2856.89 929.523 L2892.41 929.523 L2892.41 911.763 L2927.94 911.763 L2927.94 919.011 L2963.48 919.011 L2963.48 930.066 L2999.02 930.066 L2999.02 937.158 L3034.55 937.158 L3034.55 940.041 L3055.34 940.041 L3055.34 941.068 L3070.09 941.068 L3070.09 983.056 L3055.34 983.056 L3055.34 983.056 L3034.55 983.056 L3034.55 983.056 L2999.02 983.056 L2999.02 983.056 L2963.48 983.056 L2963.48 983.056 L2927.94 983.056 L2927.94 983.056 L2892.41 983.056 L2892.41 983.056 L2856.89 983.056 L2856.89 983.056 L2821.38 983.056 L2821.38 983.056 L2785.91 983.056 L2785.91 983.056 L2750.5 983.056 L2750.5 983.056 L2735.84 983.056 L2735.84 983.056 L2715.22 983.056 L2715.22 983.056 L2700.64 983.056 L2700.64 983.056 L2680.2 983.056 L2680.2 983.056 L2665.79 983.056 L2665.79 983.056 L2645.68 983.056 L2645.68 983.056 L2612.12 983.056 L2612.12 983.056 L2580.32 983.056 L2580.32 983.056 L2551.53 983.056 L2551.53 983.056 L2527.3 983.056 L2527.3 983.056 L2508.87 983.056 L2508.87 983.056 L2496.36 983.056 L2496.36 983.056 L2479.79 983.056 L2479.79 983.056 L2465.04 983.056 L2465.04 983.056 L2444.26 983.056 L2444.26 983.056 L2429.51 983.056 L2429.51 983.056 L2408.72 983.056 L2408.72 983.056 L2373.18 983.056 L2373.18 983.056 L2337.64 983.056 L2337.64 983.056 L2302.11 983.056 L2302.11 983.056 L2266.59 983.056 L2266.59 983.056 L1889.5 983.056  Z" fill="#e26f46" fill-rule="evenodd" fill-opacity="0.5"/>
<polyline clip-path="url(#clip743)" style="stroke:#e26f46; stroke-linecap:round; stroke-linejoin:round; stroke-width:4; stroke-opacity:1; fill:none" points="1889.5,982.177 2266.59,982.177 2266.59,983.056 2302.11,983.056 2337.64,983.056 2373.18,983.056 2373.18,949.5 2408.72,949.5 2408.72,611.284 2429.51,611.284 2429.51,386.48 2444.26,386.48 2444.26,253.393 2465.04,253.393 2465.04,229.77 2479.79,229.77 2479.79,271.779 2496.36,271.779 2496.36,381.364 2508.87,381.364 2508.87,537.846 2527.3,537.846 2527.3,746.163 2551.53,746.163 2551.53,948.614 2580.32,948.614 2580.32,983.056 2612.12,983.056 2612.12,939.68 2645.68,939.68 2645.68,677.555 2665.79,677.555 2665.79,401.525 2680.2,401.525 2680.2,180.438 2700.64,180.438 2700.64,120.369 2715.22,120.369 2715.22,200.773 2735.84,200.773 2735.84,452.319 2750.5,452.319 2750.5,767.959 2785.91,767.959 2785.91,974.247 2821.38,974.247 2821.38,979.828 2856.89,979.828 2856.89,929.523 2892.41,929.523 2892.41,911.763 2927.94,911.763 2927.94,919.011 2963.48,919.011 2963.48,930.066 2999.02,930.066 2999.02,937.158 3034.55,937.158 3034.55,940.041 3055.34,940.041 3055.34,941.068 3070.09,941.068 "/>
<path clip-path="url(#clip740)" d="M1895.79 228.65 L2333.62 228.65 L2333.62 124.97 L1895.79 124.97  Z" fill="#ffffff" fill-rule="evenodd" fill-opacity="1"/>
<polyline clip-path="url(#clip740)" style="stroke:#000000; stroke-linecap:round; stroke-linejoin:round; stroke-width:4; stroke-opacity:1; fill:none" points="1895.79,228.65 2333.62,228.65 2333.62,124.97 1895.79,124.97 1895.79,228.65 "/>
<path clip-path="url(#clip740)" d="M1909.7 197.546 L1993.13 197.546 L1993.13 156.074 L1909.7 156.074 L1909.7 197.546  Z" fill="#e26f46" fill-rule="evenodd" fill-opacity="0.5"/>
<polyline clip-path="url(#clip740)" style="stroke:#e26f46; stroke-linecap:round; stroke-linejoin:round; stroke-width:4; stroke-opacity:1; fill:none" points="1909.7,156.074 1993.13,156.074 "/>
<path clip-path="url(#clip740)" d="M2023.53 158.071 L2023.53 161.613 L2019.46 161.613 Q2017.17 161.613 2016.27 162.539 Q2015.39 163.465 2015.39 165.872 L2015.39 168.164 L2022.4 168.164 L2022.4 171.474 L2015.39 171.474 L2015.39 194.09 L2011.1 194.09 L2011.1 171.474 L2007.03 171.474 L2007.03 168.164 L2011.1 168.164 L2011.1 166.358 Q2011.1 162.03 2013.12 160.062 Q2015.13 158.071 2019.51 158.071 L2023.53 158.071 Z" fill="#000000" fill-rule="nonzero" fill-opacity="1" /><path clip-path="url(#clip740)" d="M2027.1 168.164 L2031.36 168.164 L2031.36 194.09 L2027.1 194.09 L2027.1 168.164 M2027.1 158.071 L2031.36 158.071 L2031.36 163.465 L2027.1 163.465 L2027.1 158.071 Z" fill="#000000" fill-rule="nonzero" fill-opacity="1" /><path clip-path="url(#clip740)" d="M2044.48 160.803 L2044.48 168.164 L2053.26 168.164 L2053.26 171.474 L2044.48 171.474 L2044.48 185.548 Q2044.48 188.719 2045.34 189.622 Q2046.22 190.525 2048.88 190.525 L2053.26 190.525 L2053.26 194.09 L2048.88 194.09 Q2043.95 194.09 2042.08 192.261 Q2040.2 190.409 2040.2 185.548 L2040.2 171.474 L2037.08 171.474 L2037.08 168.164 L2040.2 168.164 L2040.2 160.803 L2044.48 160.803 Z" fill="#000000" fill-rule="nonzero" fill-opacity="1" /><path clip-path="url(#clip740)" d="M2063.07 160.803 L2063.07 168.164 L2071.84 168.164 L2071.84 171.474 L2063.07 171.474 L2063.07 185.548 Q2063.07 188.719 2063.93 189.622 Q2064.81 190.525 2067.47 190.525 L2071.84 190.525 L2071.84 194.09 L2067.47 194.09 Q2062.54 194.09 2060.66 192.261 Q2058.79 190.409 2058.79 185.548 L2058.79 171.474 L2055.66 171.474 L2055.66 168.164 L2058.79 168.164 L2058.79 160.803 L2063.07 160.803 Z" fill="#000000" fill-rule="nonzero" fill-opacity="1" /><path clip-path="url(#clip740)" d="M2099.62 180.062 L2099.62 182.145 L2080.04 182.145 Q2080.32 186.544 2082.68 188.858 Q2085.06 191.15 2089.3 191.15 Q2091.75 191.15 2094.04 190.548 Q2096.36 189.946 2098.63 188.743 L2098.63 192.77 Q2096.34 193.743 2093.93 194.252 Q2091.52 194.761 2089.04 194.761 Q2082.84 194.761 2079.21 191.15 Q2075.59 187.539 2075.59 181.382 Q2075.59 175.016 2079.02 171.289 Q2082.47 167.539 2088.3 167.539 Q2093.53 167.539 2096.57 170.919 Q2099.62 174.275 2099.62 180.062 M2095.36 178.812 Q2095.32 175.317 2093.4 173.233 Q2091.5 171.15 2088.35 171.15 Q2084.78 171.15 2082.63 173.164 Q2080.5 175.178 2080.18 178.835 L2095.36 178.812 Z" fill="#000000" fill-rule="nonzero" fill-opacity="1" /><path clip-path="url(#clip740)" d="M2123.67 172.099 L2123.67 158.071 L2127.93 158.071 L2127.93 194.09 L2123.67 194.09 L2123.67 190.201 Q2122.33 192.516 2120.27 193.65 Q2118.23 194.761 2115.36 194.761 Q2110.66 194.761 2107.7 191.011 Q2104.76 187.261 2104.76 181.15 Q2104.76 175.039 2107.7 171.289 Q2110.66 167.539 2115.36 167.539 Q2118.23 167.539 2120.27 168.673 Q2122.33 169.784 2123.67 172.099 M2109.16 181.15 Q2109.16 185.849 2111.08 188.534 Q2113.03 191.196 2116.4 191.196 Q2119.78 191.196 2121.73 188.534 Q2123.67 185.849 2123.67 181.15 Q2123.67 176.451 2121.73 173.789 Q2119.78 171.104 2116.4 171.104 Q2113.03 171.104 2111.08 173.789 Q2109.16 176.451 2109.16 181.15 Z" fill="#000000" fill-rule="nonzero" fill-opacity="1" /><path clip-path="url(#clip740)" d="M2168.84 172.099 L2168.84 158.071 L2173.09 158.071 L2173.09 194.09 L2168.84 194.09 L2168.84 190.201 Q2167.49 192.516 2165.43 193.65 Q2163.4 194.761 2160.52 194.761 Q2155.83 194.761 2152.86 191.011 Q2149.92 187.261 2149.92 181.15 Q2149.92 175.039 2152.86 171.289 Q2155.83 167.539 2160.52 167.539 Q2163.4 167.539 2165.43 168.673 Q2167.49 169.784 2168.84 172.099 M2154.32 181.15 Q2154.32 185.849 2156.24 188.534 Q2158.19 191.196 2161.57 191.196 Q2164.95 191.196 2166.89 188.534 Q2168.84 185.849 2168.84 181.15 Q2168.84 176.451 2166.89 173.789 Q2164.95 171.104 2161.57 171.104 Q2158.19 171.104 2156.24 173.789 Q2154.32 176.451 2154.32 181.15 Z" fill="#000000" fill-rule="nonzero" fill-opacity="1" /><path clip-path="url(#clip740)" d="M2204.04 180.062 L2204.04 182.145 L2184.46 182.145 Q2184.74 186.544 2187.1 188.858 Q2189.48 191.15 2193.72 191.15 Q2196.17 191.15 2198.46 190.548 Q2200.78 189.946 2203.05 188.743 L2203.05 192.77 Q2200.76 193.743 2198.35 194.252 Q2195.94 194.761 2193.46 194.761 Q2187.26 194.761 2183.63 191.15 Q2180.02 187.539 2180.02 181.382 Q2180.02 175.016 2183.44 171.289 Q2186.89 167.539 2192.72 167.539 Q2197.96 167.539 2200.99 170.919 Q2204.04 174.275 2204.04 180.062 M2199.78 178.812 Q2199.74 175.317 2197.82 173.233 Q2195.92 171.15 2192.77 171.15 Q2189.21 171.15 2187.05 173.164 Q2184.92 175.178 2184.6 178.835 L2199.78 178.812 Z" fill="#000000" fill-rule="nonzero" fill-opacity="1" /><path clip-path="url(#clip740)" d="M2232.58 178.442 L2232.58 194.09 L2228.33 194.09 L2228.33 178.581 Q2228.33 174.9 2226.89 173.071 Q2225.46 171.243 2222.58 171.243 Q2219.14 171.243 2217.15 173.442 Q2215.15 175.641 2215.15 179.437 L2215.15 194.09 L2210.87 194.09 L2210.87 168.164 L2215.15 168.164 L2215.15 172.192 Q2216.68 169.854 2218.74 168.696 Q2220.83 167.539 2223.53 167.539 Q2228 167.539 2230.29 170.317 Q2232.58 173.071 2232.58 178.442 Z" fill="#000000" fill-rule="nonzero" fill-opacity="1" /><path clip-path="url(#clip740)" d="M2257.61 168.928 L2257.61 172.956 Q2255.8 172.03 2253.86 171.567 Q2251.91 171.104 2249.83 171.104 Q2246.66 171.104 2245.06 172.076 Q2243.49 173.048 2243.49 174.993 Q2243.49 176.474 2244.62 177.331 Q2245.76 178.164 2249.18 178.928 L2250.64 179.252 Q2255.18 180.224 2257.08 182.007 Q2259 183.766 2259 186.937 Q2259 190.548 2256.13 192.655 Q2253.28 194.761 2248.28 194.761 Q2246.2 194.761 2243.93 194.344 Q2241.68 193.951 2239.18 193.141 L2239.18 188.743 Q2241.54 189.969 2243.83 190.594 Q2246.13 191.196 2248.37 191.196 Q2251.38 191.196 2253 190.178 Q2254.62 189.136 2254.62 187.261 Q2254.62 185.525 2253.44 184.599 Q2252.28 183.673 2248.33 182.817 L2246.84 182.469 Q2242.89 181.636 2241.13 179.923 Q2239.37 178.187 2239.37 175.178 Q2239.37 171.52 2241.96 169.53 Q2244.55 167.539 2249.32 167.539 Q2251.68 167.539 2253.77 167.886 Q2255.85 168.233 2257.61 168.928 Z" fill="#000000" fill-rule="nonzero" fill-opacity="1" /><path clip-path="url(#clip740)" d="M2265.78 168.164 L2270.04 168.164 L2270.04 194.09 L2265.78 194.09 L2265.78 168.164 M2265.78 158.071 L2270.04 158.071 L2270.04 163.465 L2265.78 163.465 L2265.78 158.071 Z" fill="#000000" fill-rule="nonzero" fill-opacity="1" /><path clip-path="url(#clip740)" d="M2283.16 160.803 L2283.16 168.164 L2291.94 168.164 L2291.94 171.474 L2283.16 171.474 L2283.16 185.548 Q2283.16 188.719 2284.02 189.622 Q2284.9 190.525 2287.56 190.525 L2291.94 190.525 L2291.94 194.09 L2287.56 194.09 Q2282.63 194.09 2280.76 192.261 Q2278.88 190.409 2278.88 185.548 L2278.88 171.474 L2275.76 171.474 L2275.76 168.164 L2278.88 168.164 L2278.88 160.803 L2283.16 160.803 Z" fill="#000000" fill-rule="nonzero" fill-opacity="1" /><path clip-path="url(#clip740)" d="M2308.33 196.497 Q2306.52 201.127 2304.81 202.539 Q2303.09 203.951 2300.22 203.951 L2296.82 203.951 L2296.82 200.386 L2299.32 200.386 Q2301.08 200.386 2302.05 199.553 Q2303.02 198.719 2304.2 195.618 L2304.97 193.673 L2294.48 168.164 L2299 168.164 L2307.1 188.442 L2315.2 168.164 L2319.71 168.164 L2308.33 196.497 Z" fill="#000000" fill-rule="nonzero" fill-opacity="1" /></svg>
